<?xml version="1.0"?>
<svg xmlns:rdf="http://www.w3.org/1999/02/22-rdf-syntax-ns#" xmlns="http://www.w3.org/2000/svg" xmlns:cc="http://creativecommons.org/ns#" xmlns:xlink="http://www.w3.org/1999/xlink" xmlns:dc="http://purl.org/dc/elements/1.1/" id="svg15181" viewBox="0 0 245.61 189.85" version="1.1">
 <defs id="defs15183">
  <linearGradient id="linearGradient3922" x1="53.428" gradientUnits="userSpaceOnUse" x2="207.03" y1="147.41" y2="147.41">
   <stop id="stop3850" stop-color="#061dac" offset="0"/>
   <stop id="stop3856" stop-color="#7fc3d4" offset=".23903"/>
   <stop id="stop3852" stop-color="#fff" offset="1"/>
  </linearGradient>
 </defs>
 <g id="layer1" transform="translate(-72.053 -100.09)">
  <g id="g3891" transform="matrix(1.2685 -.068445 .068445 1.2685 19.62 14.035)">
   <path id="path3757" stroke="#000" stroke-width=".75641" d="m142.49 163.68c-0.0851 0.10682-0.18699 0.20162-0.2968 0.28518-0.14995 0.15193-0.32568 0.27547-0.49035 0.41087-0.24585 0.20374-0.49436 0.40363-0.74814 0.59753-0.32252 0.26441-0.64499 0.52984-0.979 0.77963-0.38657 0.31067-0.78209 0.60992-1.171 0.91753-0.45312 0.34935-0.90193 0.70418-1.3527 1.0566-0.49973 0.40107-0.98451 0.82023-1.4657 1.2433-0.51797 0.45597-1.0342 0.91361-1.5455 1.3771-0.57475 0.51597-1.1308 1.0523-1.6747 1.6006-0.58777 0.5899-1.1859 1.1691-1.7856 1.7469-0.61559 0.58861-1.2341 1.1742-1.8542 1.7581-0.62852 0.58337-1.2517 1.1723-1.8888 1.7464-0.6241 0.54774-1.241 1.104-1.8436 1.6753-0.62397 0.57752-1.2236 1.1805-1.8327 1.7735-0.68985 0.6772-1.4035 1.3296-2.1115 1.9876-0.73794 0.66163-1.4587 1.342-2.1951 2.0054-0.74931 0.67453-1.4987 1.3489-2.2534 2.0174-0.74493 0.65675-1.5054 1.2953-2.2687 1.9306-0.74535 0.61254-1.5088 1.2028-2.2745 1.7897-0.76067 0.57897-1.5169 1.1638-2.2811 1.738-0.72914 0.56931-1.483 1.1055-2.2315 1.6487-0.7598 0.55182-1.5285 1.0911-2.2997 1.6268-0.79402 0.54278-1.5775 1.1004-2.3627 1.6557-0.77481 0.54729-1.5428 1.1042-2.3185 1.6501-0.77396 0.55879-1.5503 1.1141-2.3322 1.6617-0.77415 0.53653-1.5589 1.0574-2.3389 1.5853-0.75023 0.51316-1.5038 1.0215-2.2624 1.5222-0.72581 0.4653-1.4688 0.90438-2.2417 1.2866-0.68274 0.33896-1.3994 0.59793-2.1266 0.82192-0.62549 0.19213-1.2678 0.31504-1.916 0.39703-0.55198 0.0679-1.1074 0.0596-1.6602 0.0114-0.49975-0.0357-0.98958-0.1369-1.4705-0.27335-0.45022-0.13094-0.87343-0.33153-1.2819-0.55867-0.38778-0.2228-0.73232-0.50787-1.0604-0.80942-0.31745-0.29324-0.59342-0.62535-0.84466-0.97587-0.24405-0.34407-0.44077-0.71687-0.6191-1.0981-0.18601-0.39133-0.31481-0.80454-0.42203-1.2232-0.11081-0.45339-0.1745-0.91554-0.22005-1.3794-0.03987-0.47914-0.05381-0.96024-0.05617-1.4409-0.0038-0.49504 0.01184-0.98955 0.04511-1.4834 0.03755-0.50465 0.09985-1.007 0.17287-1.5076 0.07421-0.52025 0.19012-1.0328 0.30716-1.5447 0.11766-0.51168 0.26278-1.0162 0.41669-1.518 0.15865-0.50184 0.32751-1.0002 0.50401-1.496 0.18058-0.52739 0.3768-1.049 0.58603-1.5656 0.23709-0.56489 0.49005-1.1228 0.75273-1.6762 0.30618-0.62479 0.63374-1.2389 0.96817-1.849 0.96979-1.7208 1.9349-3.4458 2.9806-5.1218 0.38566-0.61717 0.76922-1.2359 1.1624-1.8483 0.38649-0.62778 0.80373-1.2354 1.2149-1.847 0.40849-0.61063 0.83787-1.2061 1.2837-1.7899 0.44481-0.59925 0.92502-1.171 1.3926-1.7524 0.47024-0.57587 0.96456-1.1314 1.4644-1.6815 0.51517-0.56204 1.0408-1.1147 1.575-1.6587 0.53067-0.54967 1.0709-1.09 1.6021-1.6392 0.53705-0.53074 1.0734-1.0622 1.6138-1.5895 0.5199-0.52238 1.0519-1.0325 1.5733-1.5534 0.51489-0.51647 1.0402-1.0224 1.5474-1.5465 0.49833-0.50588 0.99211-1.0163 1.4913-1.5213 0.49957-0.50913 1.0128-1.0046 1.5172-1.5088 0.48696-0.49586 0.96892-0.99665 1.4578-1.4906 0.47632-0.4877 0.9381-0.98921 1.4096-1.4815 0.45118-0.48993 0.90313-0.97928 1.3496-1.4735 0.45343-0.49091 0.9098-0.9791 1.353-1.4793 0.45197-0.5133 0.8991-1.0309 1.3535-1.542 0.45067-0.51404 0.88891-1.0387 1.338-1.5541 0.21685-0.2573 0.43972-0.50932 0.65841-0.76504 0 0-1.4116 3.4815-1.4116 3.4815-0.22004 0.25429-0.43992 0.50872-0.659 0.76383-0.44538 0.51888-0.88855 1.0397-1.3413 1.5522-0.45129 0.51465-0.9014 1.0303-1.3563 1.5418-0.44911 0.49602-0.90496 0.98584-1.3564 1.4797-0.45025 0.4914-0.89763 0.98554-1.3568 1.4687-0.4687 0.49564-0.93604 0.99266-1.415 1.4784-0.48576 0.49683-0.97052 0.99467-1.4609 1.4869-0.5071 0.50087-1.0149 1.0011-1.5132 1.5107-0.4962 0.50729-0.99346 1.0135-1.4902 1.5203-0.51373 0.51805-1.0362 1.0273-1.552 1.5434-0.52508 0.51678-1.0509 1.0328-1.5747 1.5509-0.5371 0.5288-1.0773 1.0546-1.6054 1.5924-0.53413 0.54569-1.0705 1.0892-1.6016 1.6378-0.52864 0.54805-1.0539 1.0996-1.5627 1.6662-0.49457 0.55206-0.98154 1.1112-1.4455 1.6894-0.46932 0.5787-0.93817 1.1581-1.3812 1.7574-0.43792 0.58781-0.85766 1.1887-1.2653 1.798-0.41188 0.61079-0.81615 1.2265-1.2062 1.8515-0.38768 0.61503-0.77641 1.2294-1.1569 1.849-0.06385 0.10489-0.12801 0.20959-0.19153 0.31468-1.6017 2.6502 2.1914-3.8455 1.1012-1.9273-0.06019 0.10592-0.11957 0.2123-0.17935 0.31845-0.34263 0.60071-0.66184 1.2141-0.98042 1.8278-0.26796 0.54763-0.52442 1.1006-0.76434 1.6612-0.22355 0.50659-0.4206 1.0246-0.60043 1.5483-0.1756 0.49429-0.35562 0.98704-0.51215 1.4878-0.16654 0.49418-0.31442 0.99492-0.43936 1.5013-0.12794 0.50404-0.24434 1.0123-0.33014 1.5253-0.08443 0.49355-0.1466 0.99001-0.19782 1.4881-0.03857 0.48788-0.07174 0.97619-0.06566 1.466-0.0042 0.47381 0.0043 0.94721 0.02886 1.4205 0.03555 0.45158 0.07906 0.90289 0.17886 1.3457 0.08413 0.40314 0.19436 0.80178 0.36173 1.1791 0.16134 0.36664 0.33433 0.72912 0.56025 1.0613 0.22831 0.33598 0.48064 0.65395 0.7759 0.93448 0.30272 0.28464 0.62108 0.55396 0.98138 0.76407 0.38257 0.21279 0.77962 0.39917 1.2028 0.5171 0.45991 0.12487 0.9281 0.21283 1.4046 0.24253 0.52861 0.0367 1.059 0.0341 1.5849-0.0402 0.62765-0.0906 1.2489-0.22044 1.8533-0.41536 0.70821-0.2295 1.4041-0.4973 2.0667-0.83888 0.75466-0.39397 1.4884-0.82679 2.1989-1.2961 0.75602-0.50288 1.5083-1.0113 2.2591-1.522 0.78024-0.52321 1.5602-1.047 2.3307-1.5844 0.78091-0.54941 1.5544-1.1091 2.3318-1.6636 0.77337-0.5488 1.5434-1.1023 2.3179-1.6495 0.78489-0.55638 1.574-1.1065 2.365-1.6542 0.76925-0.53847 1.5365-1.0797 2.295-1.6333 0.74715-0.5416 1.4935-1.0842 2.2238-1.6485 0.7616-0.57653 1.5193-1.1582 2.2776-1.739 0.76099-0.58786 1.5219-1.1764 2.26-1.7929 0.76041-0.63492 1.5161-1.2755 2.2573-1.9329 0.75356-0.66932 1.5019-1.3445 2.2501-2.0198 0.73222-0.66726 1.4579-1.3417 2.191-2.008 0.70831-0.659 1.4185-1.3162 2.1054-1.9977 0.6088-0.59911 1.2159-1.2002 1.8438-1.7794 0.60859-0.56458 1.2273-1.118 1.8478-1.6694 0.63223-0.57741 1.2558-1.1641 1.8817-1.7484 0.61895-0.58504 1.2379-1.1701 1.8509-1.7614 0.59885-0.57907 1.1935-1.1624 1.7813-1.7526 0.55303-0.54576 1.1148-1.0826 1.6943-1.6004 0.51398-0.46471 1.0337-0.92298 1.554-1.3805 0.48697-0.42296 0.97761-0.84213 1.4859-1.2394 0.45205-0.35495 0.90234-0.71215 1.3563-1.0647 0.39366-0.30528 0.78257-0.61655 1.1756-0.92267 0.32738-0.26233 0.65365-0.52601 0.98033-0.78918 0.24954-0.2012 0.49829-0.4032 0.74329-0.60995 0.16391-0.13579 0.32088-0.27839 0.47324-0.4269 0.0888-0.10176 0.17536-0.20439 0.26265-0.30627 0 0-1.4349 3.5305-1.4349 3.5305z"/>
   <path id="path3763" stroke="#000" stroke-width=".75641" d="m90.675 132.65c0.52306-0.0843 1.0534-0.11223 1.5813-0.14923 1.0298-0.0663 2.0603-0.12013 3.0908-0.17335 1.1359-0.0557 2.2732-0.0687 3.4102-0.0831 1.2638-0.0196 2.5268 0.0238 3.7893 0.0754 1.5372 0.0536 3.0717 0.15975 4.6048 0.28039 1.8365 0.15456 3.6707 0.33579 5.5047 0.51742 1.9249 0.19904 3.8489 0.40756 5.7723 0.6209 2.0097 0.22299 4.0161 0.4736 6.0223 0.72655 2.1339 0.26301 4.267 0.5326 6.3981 0.81707 2.2036 0.29693 4.3997 0.64742 6.5911 1.0229 2.2661 0.38887 4.5228 0.82852 6.7763 1.2834 2.2663 0.46096 4.5234 0.96479 6.7786 1.4767 2.2425 0.51658 4.4816 1.0481 6.7137 1.6079 2.2965 0.56291 4.583 1.1647 6.8636 1.7886 2.336 0.64788 4.658 1.3448 6.9738 2.0612 2.2896 0.70796 4.5621 1.4694 6.8219 2.2671 2.1101 0.74885 4.2022 1.5466 6.2795 2.3818 1.9013 0.76091 3.7714 1.5955 5.6195 2.477 1.6745 0.8064 3.3153 1.6807 4.9346 2.5922 1.4568 0.83153 2.8693 1.7362 4.262 2.6702 1.2307 0.82166 2.4049 1.7227 3.5461 2.6635 0.97857 0.80994 1.8868 1.6983 2.7629 2.6166 0.74014 0.77755 1.4187 1.6067 2.0115 2.5014 0.49321 0.74748 0.85659 1.5634 1.1683 2.3996 0.25841 0.70506 0.44424 1.4327 0.58283 2.1699 0.12639 0.64283 0.10015 1.2844-0.0317 1.9218-0.55855 1.7563-1.5177 3.4099-2.7142 4.813-0.41523 0.47402-0.91759 0.86437-1.4309 1.2262-0.55595 0.38344-1.1422 0.7207-1.7378 1.038-0.62333 0.33093-1.2675 0.6199-1.9184 0.89168-0.69121 0.28786-1.4006 0.52882-2.1108 0.76477-0.76528 0.25376-1.5442 0.4618-2.3272 0.65274-0.90678 0.22092-1.8238 0.39459-2.7424 0.55745-1.073 0.18747-2.1527 0.33268-3.2297 0.49486-1.2722 0.19531-2.5492 0.35685-3.8275 0.50683-1.4915 0.16787-2.985 0.32023-4.482 0.42906-1.7386 0.12982-3.4818 0.1647-5.2245 0.17178-1.9815 0.009-3.9611-0.0826-5.9388-0.1952-1.9825-0.10701-3.9599-0.28889-5.9364-0.47344-1.8334-0.16798-3.6642-0.36308-5.4932-0.57384-1.6957-0.19372-3.3897-0.40123-5.0835-0.61023-1.6028-0.20979-3.207-0.40904-4.8102-0.61524-1.6708-0.2223-3.3393-0.46154-5.0091-0.69152-1.6906-0.23075-3.3828-0.44975-5.0737-0.67777-1.4582-0.19331-10.746-2.4024-12.203-2.6025l2.7134-1.97 0.25254-0.75762c1.4568 0.20135 9.4811 1.906 10.939 2.0955 1.6923 0.22363 3.3854 0.44154 5.0762 0.67654 1.6697 0.23103 3.339 0.46479 5.0107 0.68079 1.6025 0.20426 3.2051 0.4082 4.8068 0.61876 1.6912 0.21125 3.3823 0.42268 5.0752 0.61965 1.8246 0.21245 3.651 0.41026 5.48 0.58242 1.9706 0.18802 3.9425 0.37008 5.9196 0.47549 1.9734 0.10784 3.9488 0.19241 5.9258 0.17009 1.7393-0.0192 3.4788-0.0644 5.2131-0.20541 1.4953-0.12141 2.9876-0.27672 4.4772-0.45495 1.2778-0.15772 2.5541-0.32734 3.8257-0.52933 1.0767-0.16551 2.1556-0.31874 3.2274-0.51424 0.91365-0.16938 1.825-0.35254 2.7262-0.58047 0.77527-0.19942 1.5465-0.4148 2.3045-0.67342 0.70303-0.23865 1.4038-0.48558 2.0855-0.78077 0.64035-0.27872 1.275-0.57144 1.8867-0.90953 0.58153-0.32519 1.1574-0.66361 1.6926-1.062 0.4882-0.37677 0.96655-0.7727 1.3406-1.2681 0.77418-1.0505 1.6651-2.8121-1.3614 2.4737-0.30931 0.54022 0.778-1.2262 0.38784-0.80615 0.18558-0.59912 0.26236-1.2101 0.16372-1.8352-0.10996-0.72793-0.28314-1.4446-0.52101-2.1418-0.28704-0.82185-0.61825-1.6284-1.0886-2.3653-0.56476-0.89068-1.2218-1.7122-1.944-2.4812-0.8593-0.91624-1.7512-1.8025-2.7145-2.6105-1.1264-0.94099-2.2869-1.8411-3.5048-2.6616-1.38-0.93581-2.7824-1.839-4.2281-2.6709-1.6091-0.91249-3.2396-1.788-4.904-2.5958-1.8383-0.88298-3.6994-1.718-5.591-2.4812-2.0697-0.83807-4.1539-1.6392-6.257-2.3901-2.2536-0.79949-4.5204-1.5616-6.8055-2.267-2.3124-0.71475-4.6314-1.4094-6.9649-2.0526-2.2793-0.62083-4.5652-1.2171-6.8597-1.7795-2.2311-0.55473-4.4683-1.0844-6.7084-1.6017-2.2518-0.51284-4.5063-1.0145-6.7696-1.4747-2.2512-0.4525-4.506-0.88725-6.7698-1.2727-2.189-0.37033-4.382-0.71782-6.5829-1.0103-2.1317-0.28242-4.2652-0.54999-6.4001-0.80726-2.0064-0.2492-4.0133-0.49368-6.0232-0.71332-1.9228-0.21128-3.8458-0.42078-5.7704-0.61493-1.8343-0.17827-3.6688-0.35777-5.5068-0.49512-1.5341-0.10883-3.0694-0.20177-4.607-0.24652-1.2597-0.0435-2.5198-0.0737-3.7804-0.0504-1.1336 0.0181-2.2674 0.0341-3.3997 0.0943-1.0318 0.0566-2.0639 0.11272-3.0934 0.20322-0.52972 0.0508-1.0599 0.10381-1.5806 0.21797l1.6709-3.4176z"/>
   <path id="path3765" stroke="#000" stroke-width=".75641" d="m89.542 168.87c-0.14717-0.0714-0.2962-0.13884-0.44751-0.20107-0.26469-0.12038-0.5371-0.22232-0.80609-0.33246-0.38909-0.15413-0.77539-0.31557-1.1613-0.47758-0.43993-0.17876-0.87464-0.3701-1.3071-0.56611-0.47292-0.21222-0.93884-0.43961-1.4061-0.66397-0.53336-0.25188-1.0547-0.52791-1.5835-0.78906-0.579-0.2965-1.167-0.57471-1.7506-0.86188-0.61824-0.29648-1.2356-0.59469-1.8541-0.89069-0.64334-0.2999-1.2859-0.60126-1.9236-0.91294-0.67303-0.3315-1.3362-0.68241-2.004-1.0241-0.64998-0.33326-1.2924-0.68064-1.9336-1.0305-0.62547-0.33429-1.248-0.67397-1.8551-1.0406-0.60306-0.37495-1.1865-0.77999-1.7592-1.1996-0.55514-0.41405-1.0867-0.85892-1.6088-1.3136-0.50224-0.44885-0.98776-0.91575-1.4508-1.4049-0.45815-0.48835-0.87508-1.0125-1.2765-1.5477-0.39573-0.5312-0.75281-1.0892-1.0958-1.6554-0.34676-0.5681-0.64088-1.1651-0.91681-1.77-0.28976-0.63275-0.53376-1.2843-0.75908-1.9422-0.26103-0.79221-0.4659-1.6015-0.66716-2.4106-0.23142-0.95639-0.4357-1.9191-0.62983-2.8837-0.2147-1.0678-0.42394-2.1367-0.62869-3.2065-0.2088-1.1306-0.41163-2.2623-0.62206-3.3926-0.21331-1.1813-0.42549-2.3627-0.64007-3.5437-0.21486-1.2247-0.4547-2.4448-0.68241-3.6672-0.22306-1.2435-0.45789-2.4847-0.68819-3.7269-0.22631-1.2398-0.44712-2.4805-0.67573-3.7199-0.22217-1.2087-0.45493-2.4154-0.68023-3.6235-0.21876-1.1969-0.43206-2.3948-0.65328-3.5913-0.22156-1.1854-0.42868-2.3734-0.63054-3.5623-0.1904-1.1313-0.37324-2.2638-0.54172-3.3986-0.1556-1.042-0.27114-2.0892-0.36601-3.1383-0.09152-0.93987-0.0936-1.8834-0.05368-2.8258 0.03839-0.83494 0.15068-1.6631 0.29888-2.4849 0.13546-0.71673 0.32728-1.4208 0.55096-2.1145 0.65882-1.7556 1.6132-3.4133 2.7603-4.897 0.40482-0.48811 0.8905-0.89497 1.394-1.2761 0.50313-0.37902 1.0433-0.70221 1.6079-0.97966 0.56231-0.28013 1.1543-0.48861 1.7542-0.67079 0.61784-0.16961 1.2477-0.28783 1.878-0.39973 0.62446-0.11984 1.2564-0.18285 1.8899-0.22754 0.6269-0.04017 1.2554-0.05935 1.8835-0.06373 0.63902 0.000567 1.278 0.0055 1.917 0.0095 0.64705-0.0023 1.2938 0.01206 1.9391 0.05993 0.60802 0.05377 1.2097 0.16248 1.8048 0.29595 0.55588 0.1261 1.0905 0.32275 1.612 0.54995 0.49104 0.2341 0.95328 0.52383 1.4056 0.82467 0.4448 0.2976 0.85147 0.64537 1.2416 1.0104 0.38918 0.36925 0.73966 0.77567 1.0685 1.1988 0.35212 0.45354 0.6426 0.94844 0.91855 1.4505 0.28748 0.52932 0.53994 1.0763 0.78147 1.6278 0.25328 0.58578 0.46735 1.187 0.67127 1.7914 0.20956 0.63964 0.40674 1.2833 0.59821 1.9286 0.19101 0.66789 0.37852 1.3367 0.57421 2.0033 0.20186 0.67912 0.38465 1.3636 0.57327 2.0465 0.18736 0.68405 0.36344 1.3711 0.5563 2.0536 0.19156 0.6684 0.39092 1.3345 0.58964 2.0008 0.20803 0.67975 0.40016 1.3642 0.59713 2.0472 0.19863 0.69415 0.40223 1.3868 0.59494 2.0826 0.19417 0.69182 0.39298 1.3823 0.59195 2.0728 0.19684 0.67777 0.408 1.3512 0.61459 2.026 0.20917 0.67483 0.42411 1.3479 0.63629 2.0217 0.21809 0.68733 0.4495 1.3704 0.68039 2.0535 0.24402 0.70885 0.4879 1.4178 0.7369 2.1249 0.2554 0.70901 0.52229 1.4138 0.78694 2.1194 0.25445 0.7028 0.52874 1.3978 0.80908 2.0905 0.19124 0.45661 0.09494 0.22835 0.28891 0.6848l-2.0802 3.1197c-0.1952-0.45822-0.0973-0.22882-0.29368-0.68818-0.2844-0.69421-0.5638-1.3903-0.81671-2.0967-0.2679-0.70687-0.53184-1.4153-0.79341-2.1245-0.24929-0.70769-0.49628-1.4161-0.74271-2.1248-0.23137-0.68492-0.46464-1.3692-0.6882-2.0568-0.21067-0.67514-0.42759-1.3483-0.63901-2.0232-0.20507-0.67717-0.41961-1.3514-0.61892-2.0304-0.19781-0.69204-0.39922-1.383-0.59519-2.0756-0.18954-0.6953-0.39178-1.3869-0.59153-2.0793-0.19651-0.68168-0.38822-1.3648-0.59408-2.0437-0.20274-0.66636-0.3998-1.3345-0.59398-2.0034-0.19853-0.68226-0.37395-1.3706-0.55862-2.0567-0.18816-0.68112-0.37087-1.3638-0.56869-2.0422-0.19622-0.66601-0.39025-1.3326-0.57502-2.0019-0.18762-0.64209-0.38544-1.2811-0.58899-1.9183-0.19682-0.59652-0.40284-1.1903-0.6467-1.7695-0.23312-0.54441-0.47687-1.0846-0.75452-1.608-0.262-0.4886-0.53557-0.972-0.87152-1.4147-0.31131-0.41205-0.646-0.80643-1.0177-1.1658-0.37196-0.35388-0.7603-0.69102-1.1869-0.97844-0.43282-0.2896-0.87558-0.56852-1.3468-0.79195-0.5-0.21639-1.013-0.4021-1.5463-0.51899-0.57853-0.12565-1.163-0.22838-1.7539-0.27338-0.63811-0.04191-1.2773-0.05252-1.9167-0.05078-0.63756-0.0034-1.2751-0.0086-1.9127-0.0043-0.62088 0.009-1.2421 0.02767-1.8614 0.07387-0.62204 0.05009-1.2414 0.12561-1.8545 0.2442-0.6176 0.11419-1.2353 0.23541-1.8359 0.42199-0.58184 0.19062-1.1539 0.41068-1.6961 0.69755-0.54117 0.29232-1.0608 0.62322-1.5422 1.0074-0.47966 0.39047-0.9376 0.81168-1.2999 1.3168-0.74068 1.0667-1.6751 2.8367 1.3595-2.4413 0.38418-0.66818-0.88579 1.4182-0.42811 0.87598-0.24178 0.6843-0.44614 1.3811-0.59757 2.0914-0.16525 0.81267-0.29373 1.6328-0.3456 2.4613-0.05719 0.93437-0.07657 1.8713 0.0055 2.8052 0.08426 1.0477 0.19362 2.0934 0.34232 3.134 0.16042 1.1356 0.34445 2.2676 0.53083 3.3992 0.19893 1.1889 0.40301 2.377 0.6235 3.5621 0.2213 1.1962 0.43957 2.393 0.65353 3.5906 0.22327 1.2093 0.4571 2.4165 0.6786 3.6261 0.23038 1.2395 0.44971 2.481 0.67466 3.7215 0.22933 1.2418 0.46744 2.482 0.68903 3.7253 0.22597 1.2224 0.46914 2.4416 0.6848 3.6659 0.21537 1.1791 0.43129 2.3581 0.64216 3.5381 0.21075 1.1288 0.41789 2.2582 0.62326 3.388 0.20358 1.0674 0.41426 2.1335 0.63014 3.1985 0.19149 0.95787 0.39676 1.913 0.62376 2.8631 0.19694 0.79828 0.40158 1.5956 0.65054 2.3795 0.21704 0.64905 0.45171 1.2922 0.73211 1.917 0.26512 0.59552 0.54426 1.1857 0.88037 1.7452 0.33274 0.5592 0.67935 1.1105 1.0643 1.6356 0.38924 0.52741 0.79377 1.044 1.2394 1.5255 0.45182 0.48359 0.92802 0.94292 1.419 1.3867 0.5122 0.44998 1.0351 0.8889 1.5801 1.2988 0.56325 0.41333 1.1357 0.8144 1.7293 1.1834 0.60339 0.36258 1.2207 0.70073 1.8412 1.0332 0.63782 0.34891 1.2768 0.69566 1.9234 1.028 0.66528 0.34105 1.3257 0.69163 1.998 1.0189 0.63842 0.30864 1.2806 0.6092 1.9232 0.90898 0.61966 0.29642 1.2391 0.59317 1.8583 0.89052 0.58475 0.28567 1.1735 0.56316 1.7539 0.85769 0.52807 0.25976 1.0498 0.5324 1.5836 0.7804 0.46511 0.2225 0.93007 0.4455 1.4009 0.6558 0.42984 0.19346 0.86253 0.3806 1.2996 0.55717 0.38522 0.15963 0.7709 0.31872 1.1605 0.46738 0.27202 0.106 0.54661 0.20565 0.81456 0.32182 0.15594 0.0627 5.8657 1.3926 6.0198 1.4596l-2.1235 3.0684z"/>
   <path id="path3767" stroke="#000" stroke-width=".75641" d="m73.695 114.38c-0.16748 0.1417-0.3433 0.27296-0.51446 0.41028-0.33125 0.268-0.6622 0.53608-0.99452 0.80294-0.46302 0.37767-0.92361 0.75828-1.4024 1.1158-0.5668 0.42097-1.1398 0.83336-1.6972 1.2668-0.6173 0.4587-1.2235 0.93184-1.8372 1.3953-0.63172 0.47702-1.2666 0.94979-1.8986 1.4264-0.64747 0.49538-1.3046 0.97814-1.9711 1.4475-0.66723 0.47391-1.3405 0.93849-2.028 1.3825-0.6836 0.43642-1.3773 0.85652-2.0748 1.2703-0.67861 0.40602-1.3762 0.77698-2.0934 1.1096-0.63749 0.29631-1.2944 0.54663-1.9742 0.7258-0.59124 0.15422-1.1991 0.20614-1.808 0.20451-0.49466-0.0173-0.98108-0.11202-1.4551-0.24983-0.35411-0.10201-0.66278-0.283-0.9246-0.53954-0.23959-0.25294-0.31627-0.55887-0.29874-0.89808 0.04565-0.41859 0.22895-0.80069 0.41194-1.174 0.82609-1.5293 1.7138-3.0248 2.5959-4.5224 0.28608-0.47024 0.59992-0.92279 0.93184-1.3616 0.37242-0.49093 0.76574-0.96538 1.1469-1.4494 0.40687-0.50107 0.82088-0.99657 1.2524-1.4766 0.42324-0.48517 0.85554-0.96227 1.2928-1.4348 0.44923-0.46054 0.89786-0.92157 1.3387-1.3903 0.44946-0.4613 0.90775-0.91436 1.3738-1.359 0.47178-0.46434 0.9479-0.92415 1.4273-1.3806 0.24476-0.23081 0.48376-0.46747 0.72675-0.70014l-1.4442 3.4678c-0.2421 0.23414-0.48406 0.46843-0.72829 0.70037-0.47773 0.45814-0.9515 0.92037-1.4259 1.382-0.4597 0.44896-0.91784 0.89985-1.3592 1.367-0.44412 0.46411-0.89433 0.9224-1.333 1.3917-0.43382 0.47471-0.86235 0.95418-1.286 1.438-0.42166 0.48605-0.83493 0.97949-1.234 1.4843-0.38484 0.48176-0.77222 0.96189-1.1353 1.4604-0.31658 0.44876-0.62681 0.90229-0.89782 1.3806-1.2909 2.2288 2.6387-4.5878 1.122-1.9425-0.19446 0.34851-0.38215 0.70476-0.50568 1.0855-0.06059 0.24088-0.13551 0.47952 0.01955 0.70245 0.19578 0.23089 0.45271 0.36699 0.74345 0.44885 0.44068 0.12587 0.8929 0.21008 1.3529 0.21053 0.57901-0.0106 1.1553-0.0782 1.7133-0.2395 0.65657-0.19704 1.295-0.44748 1.9133-0.744 0.70401-0.33955 1.3889-0.71575 2.0583-1.1194 0.69293-0.41553 1.3834-0.83528 2.0608-1.2759 0.68096-0.4487 1.3495-0.91565 2.0143-1.388 0.66196-0.47408 1.3155-0.95964 1.9625-1.454 0.63263-0.47555 1.2671-0.9486 1.8973-1.4274 0.61166-0.46769 1.2236-0.93492 1.837-1.4003 0.56401-0.42876 1.1381-0.84396 1.7011-1.274 0.47186-0.3703 0.93365-0.75301 1.3978-1.1329 0.33333-0.27426 0.67013-0.54417 1.0029-0.81914 0.17332-0.14069 0.3444-0.28399 0.50862-0.43524l-1.4818 3.5111z"/>
   <path id="path3769" stroke="#000" stroke-width=".75641" d="m85.582 99.347c0.15819-0.10872 0.30834-0.22946 0.46101-0.34606 0.21737-0.20799 0.42207-0.42695 0.623-0.65073 0.23776-0.26255 0.45826-0.53715 0.65995-0.82836-0.23937 0.52111 0.7182-1.2189 0.39465-0.66037-1.7136 2.958-2.3382 4.1039-1.6696 2.8809 0.20158-0.38069 0.3733-0.77614 0.55064-1.1685 0.19215-0.41978 0.34987-0.85376 0.51641-1.284 0.17512-0.43652 0.32739-0.88116 0.45227-1.3345 0.1094-0.39882 0.14644-0.80905 0.11852-1.2206-0.03894-0.35317-0.162-0.68555-0.31639-1.0028-0.15196-0.29277-0.35604-0.55221-0.58381-0.78908-0.21794-0.21569-0.46995-0.39078-0.73651-0.5403-0.25631-0.14189-0.52991-0.24355-0.81457-0.31-0.2995-0.07303-0.60594-0.09793-0.91276-0.11341-0.34668-0.01745-0.68846 0.03093-1.0301 0.08137-0.4114 0.05625-0.81375 0.16441-1.2098 0.28688-0.4385 0.139-0.86111 0.31709-1.2755 0.51554-0.43632 0.20128-0.85915 0.43204-1.2685 0.68351-0.06931 0.04147-0.13861 0.08293-0.20792 0.1244l1.5305-3.4501c0.06973-0.04133 0.13946-0.08266 0.20919-0.124 0.42476-0.24136 0.85711-0.46949 1.3036-0.66842 0.43166-0.19193 0.87272-0.36183 1.3266-0.49435 0.41479-0.11601 0.83456-0.21606 1.2627-0.26864 0.36485-0.0484 0.73188-0.07768 1.1001-0.05242 0.32896 0.02302 0.65665 0.06372 0.97678 0.14555 0.31372 0.08573 0.61806 0.20025 0.90274 0.35928 0.29507 0.16887 0.5769 0.36075 0.82431 0.59542 0.26002 0.25489 0.49172 0.53753 0.67792 0.85137 0.19041 0.33954 0.34392 0.69836 0.42499 1.0808 0.08166 0.43366 0.07897 0.87522-0.0099 1.3087-0.09942 0.46597-0.24083 0.92099-0.41421 1.3649-0.16573 0.43144-0.32466 0.8655-0.50065 1.2929-0.17062 0.39637-0.35139 0.78831-0.5298 1.1812-0.72629 1.4695-1.5444 2.905-2.4873 4.2472-0.22059 0.28292-0.45666 0.553-0.70039 0.81619-0.2137 0.22542-0.43533 0.44691-0.68545 0.63206-0.15513 0.11963-0.31036 0.23942-0.46441 0.36019 0 0 1.5018-3.5018 1.5018-3.5018z"/>
   <path id="path3773" stroke="#000" stroke-width=".75641" d="m134.66 133.69c0.33274-0.23938 0.65218-0.49777 0.97305-0.75324 0.64572-0.51505 1.294-1.0269 1.9432-1.5376 0.7884-0.63738 1.5583-1.2969 2.3362-1.9469 0.88998-0.77574 1.8128-1.5117 2.7392-2.2431 1.0346-0.78481 2.0703-1.5682 3.1038-2.3545 1.092-0.82772 2.1909-1.6463 3.2853-2.4709 1.1054-0.84699 2.2247-1.6754 3.3432-2.5049 1.0844-0.79056 2.1674-1.583 3.2626-2.3586 1.0346-0.74348 2.0723-1.4826 3.1159-2.2134 0.99442-0.69799 1.9951-1.3871 3.0008-2.0688 0.97077-0.64921 1.9552-1.2772 2.951-1.8873 0.95701-0.58986 1.9311-1.1496 2.9258-1.6732 0.99113-0.52229 2.0066-0.99539 3.029-1.4526 0.98249-0.4427 1.9884-0.82987 3.0052-1.1858 0.93634-0.32296 1.8895-0.59287 2.8502-0.83228 0.87176-0.22897 1.7615-0.36919 2.6536-0.48913 0.82495-0.0944 1.6541-0.14307 2.484-0.15989 0.75504-0.0143 1.5077 0.0574 2.2554 0.15499 0.67754 0.0899 1.3408 0.25375 1.9938 0.45205 0.57795 0.18497 1.1172 0.46022 1.6335 0.77517 0.46 0.26922 0.84072 0.63401 1.1878 1.0335 0.30864 0.36236 0.55714 0.76761 0.77162 1.191 0.20255 0.42701 0.33656 0.88141 0.44684 1.3396 0.10224 0.45957 0.16794 0.92555 0.1983 1.3951 0.0287 0.47918 0.0192 0.9591-0.01 1.4379-0.038 0.49846-0.12179 0.99076-0.24165 1.4756-0.13964 0.51566-0.32919 1.0149-0.53743 1.5062-0.75444 1.6587-1.7666 3.2113-2.6738 4.7757-0.34373 0.54283-0.71078 1.0693-1.0915 1.5866-0.39023 0.54455-0.82198 1.0566-1.2383 1.5807-0.43972 0.53838-0.88343 1.0736-1.3404 1.5974-0.46868 0.52287-0.9385 1.0446-1.4157 1.5597-0.48044 0.52269-0.98859 1.0188-1.485 1.5262-0.50552 0.50666-1.0233 1.0006-1.5251 1.5111-0.51108 0.50712-1.0217 1.0147-1.5254 1.5291-0.51096 0.50805-1.0222 1.0158-1.5264 1.5306-0.50473 0.50758-1.0038 1.0206-1.4958 1.5405-0.47944 0.50155-0.95493 1.0068-1.4323 1.5104-0.47317 0.49786-0.93712 1.0043-1.394 1.5171-0.45981 0.4975-0.89689 1.0152-1.3472 1.5213-0.436 0.49369-0.86754 0.99117-1.2927 1.4943-0.4218 0.48525-0.83531 0.97755-1.2699 1.4515-0.28126 0.31412-0.13938 0.15831-0.42563 0.46743l1.4239-3.4806c0.28185-0.3111 0.14094-0.15507 0.42274-0.46811 0.4254-0.4798 0.8414-0.96783 1.2595-1.454 0.42923-0.49985 0.86096-0.99745 1.2984-1.4902 0.44655-0.50903 0.89204-1.019 1.3494-1.5184 0.46213-0.50991 0.92771-1.0167 1.4041-1.5134 0.47888-0.5012 0.94913-1.0105 1.4318-1.5081 0.49632-0.51637 0.99661-1.0288 1.5012-1.5371 0.50771-0.51129 1.018-1.02 1.5263-1.5306 0.50742-0.51111 1.0171-1.0199 1.5267-1.5289 0.50664-0.50513 1.0223-1.0011 1.5234-1.5118 0.49815-0.5043 0.99778-1.0075 1.4744-1.5324 0.47331-0.51619 0.94304-1.0358 1.4037-1.5633 0.45036-0.52897 0.89449-1.0633 1.3291-1.6053 0.42032-0.51995 0.83336-1.0457 1.2221-1.5899 0.37154-0.52229 0.73319-1.0517 1.0626-1.6019-3.2291 5.6019-1.6708 3.008-1.0195 1.6889 0.21858-0.4797 0.42472-0.96553 0.57551-1.4716 0.15148-0.46512 0.24695-0.94372 0.29678-1.4306 0.056-0.46624 0.0657-0.93724 0.0515-1.4064-0.0148-0.45656-0.0535-0.91026-0.14843-1.3583-0.0839-0.44051-0.2031-0.87432-0.37358-1.2898-0.18382-0.40687-0.40866-0.79273-0.68923-1.1414-0.31146-0.37927-0.65543-0.72637-1.082-0.9773-0.48611-0.30203-0.99697-0.56175-1.5445-0.7348-0.63394-0.18994-1.2779-0.34559-1.9355-0.42899-0.73048-0.0911-1.4653-0.15495-2.2023-0.1351-0.81624 0.0211-1.6321 0.0701-2.4426 0.17196-0.87922 0.12309-1.7543 0.27412-2.6135 0.50107-0.94897 0.24182-1.8903 0.51357-2.8146 0.83836-1.0061 0.36036-2.0019 0.74942-2.9747 1.1929-1.0152 0.45926-2.0225 0.93655-3.0058 1.4612-0.98537 0.53047-1.9516 1.0945-2.9043 1.6817-0.9898 0.61123-1.9694 1.2387-2.9337 1.8896-1.0025 0.68186-2.0014 1.369-2.9935 2.066-1.0411 0.73099-2.0773 1.4689-3.1118 2.2092-1.0909 0.77568-2.1729 1.5639-3.2527 2.355-1.1183 0.82839-2.2336 1.6608-3.3402 2.5047-1.0964 0.82413-2.1937 1.6472-3.2858 2.4771-1.0342 0.78729-2.0723 1.5695-3.1003 2.3648-0.92628 0.73668-1.8407 1.4876-2.7359 2.2619-0.77957 0.65711-1.5552 1.3191-2.3517 1.9557-0.65308 0.51908-1.3063 1.038-1.9526 1.5655-0.32872 0.26482-0.66101 0.52586-0.98392 0.79751 0 0 1.4885-3.5034 1.4885-3.5034z"/>
   <path id="path3787" fill="#fff" d="m57.205 117.5 1.9669-1.8748 1.883-1.5565c1.0172-0.84078 1.6717-1.8068 1.7053-1.8794 0.0336-0.0725 2.0378 0.085 4.4538 0.34996l4.3927 0.48184-3.1166 2.3419c-3.158 2.373-12.916 10.874-13.488 6.3995-0.21516-1.6835 1.1734-3.2812 2.203-4.2626z"/>
   <path id="path3789" fill="#fff" d="m53.721 122.46c0-0.194 0.46415-0.92466 1.0314-1.6237 0.56729-0.69903 1.0831-1.3426 1.1461-1.4301 0.22513-0.31247 0.41332 0.18263 0.6777 1.7829l0.26825 1.6237h-1.5618c-0.85897 0-1.5618-0.15873-1.5618-0.35273z"/>
   <path id="path3793" d="m189.97 158.66c-0.0514 0.0371-0.10607 0.0701-0.15747 0.10766-0.10878 0.0719-0.21591 0.14598-0.32236 0.22121-0.14832 0.1024-0.29205 0.21158-0.43221 0.32486-0.1481 0.12317-0.29318 0.24986-0.44026 0.37422-0.15346 0.13229-0.29951 0.27279-0.44404 0.41468-0.14871 0.14289-0.2976 0.28556-0.44411 0.43071-0.15429 0.1493-0.31002 0.29715-0.46247 0.44833-0.15748 0.14977-0.30628 0.30825-0.45958 0.46223-0.15652 0.15638-0.30843 0.31676-0.4528 0.48444-0.14632 0.17134-0.27957 0.35301-0.40758 0.53824-0.29384 0.43859-0.85057 1.4372 0.30381-0.55874-0.10616 0.18293-0.19417 0.37507-0.27165 0.57161-0.0737 0.18598-0.11074 0.38234-0.13822 0.57957-0.0259 0.19743-0.0137 0.39581 0.013 0.59222 0.0302 0.21005 0.0883 0.41386 0.163 0.61201 0.0859 0.22801 0.22018 0.4305 0.36409 0.62519 0.17092 0.22958 0.37566 0.4297 0.58373 0.62495 0.23112 0.21669 0.47601 0.41728 0.73126 0.60467 0.28968 0.21104 0.59999 0.39082 0.9133 0.56388 0.35658 0.19216 0.72497 0.36096 1.097 0.52068 0.40932 0.17245 0.82466 0.32987 1.2434 0.47785 0.45634 0.1591 0.91997 0.2958 1.3848 0.42744 0.46872 0.13101 0.94073 0.24978 1.4132 0.36648 0.4401 0.10572 0.88224 0.20259 1.3248 0.29733 0.4167 0.089 0.83456 0.17245 1.253 0.25266 0.4077 0.0803 0.8183 0.14407 1.229 0.20652 0.39231 0.0599 0.78529 0.11484 1.1791 0.16353 0.063 0.008 0.12603 0.0151 0.18905 0.0227l-0.61087 1.164c-0.0631-0.008-0.12624-0.0155-0.18937-0.0232-0.39448-0.0503-0.78809-0.10693-1.1812-0.16732-0.41206-0.0636-0.82393-0.12888-1.233-0.20966-0.41906-0.0811-0.8375-0.16535-1.2547-0.25571-0.4433-0.0961-0.88621-0.19412-1.3267-0.30238-0.47339-0.11817-0.94632-0.23844-1.4163-0.36971-0.46753-0.1326-0.93382-0.27015-1.3931-0.42928-0.42191-0.14809-0.84073-0.30496-1.253-0.47842-0.37634-0.16078-0.74901-0.3308-1.1101-0.52375-0.3187-0.17479-0.63497-0.35539-0.93039-0.56802-0.2602-0.18926-0.51015-0.39156-0.74599-0.61071-0.21458-0.19869-0.42672-0.40154-0.60532-0.63416-0.15316-0.2-0.29942-0.40702-0.3966-0.64105-0.0829-0.20254-0.15157-0.41057-0.18726-0.62721-0.0374-0.20232-0.0581-0.40713-0.0436-0.61312 0.0198-0.20253 0.0496-0.40531 0.1136-0.59918 0.0698-0.20171 0.15323-0.39868 0.25647-0.58576 0.33007-0.57373 0.63931-1.1672 1.0191-1.7122 0.13251-0.1839 0.27013-0.36426 0.42106-0.5336 0.14848-0.16512 0.30365-0.32381 0.45986-0.48161 0.15218-0.15556 0.30466-0.31085 0.46163-0.46161 0.15418-0.14969 0.30877-0.29897 0.46248-0.44913 0.14746-0.14458 0.29706-0.28695 0.44533-0.43069 0.14751-0.14104 0.29583-0.28131 0.45236-0.41242 0.14677-0.12591 0.29376-0.25164 0.44474-0.37249 0.14424-0.11178 0.29026-0.22124 0.44068-0.32462 0.10869-0.0753 0.21613-0.15237 0.32573-0.22637 0.0566-0.0368 0.11093-0.0778 0.17155-0.10772l-0.5501 1.2301z"/>
   <path id="path3795" d="m166.42 153.22c-0.0558-0.017-0.11379-0.0254-0.17136-0.034-0.10073-0.0138-0.20199-0.0233-0.30326-0.0322-0.13718-0.0156-0.27463-0.0175-0.41245-0.0155-0.16815 0.007-0.33592 0.0218-0.50304 0.0412-0.17611 0.0226-0.34995 0.0582-0.52218 0.10091-0.17011 0.0447-0.33656 0.10137-0.5029 0.1582-0.16219 0.0638-0.31949 0.13874-0.4712 0.22442-0.14734 0.0908-0.28283 0.19886-0.40824 0.31777-0.1227 0.11612-0.22917 0.24575-0.31561 0.39068-0.24173 0.44277 0.0159-0.0305 0.58069-0.99862 0.0137-0.0234-0.0255 0.0479-0.0375 0.0722-0.0362 0.073-0.0654 0.14738-0.0929 0.22396-0.0525 0.15176-0.0806 0.30928-0.097 0.46851-0.0186 0.15874-0.008 0.3171 0.0186 0.47408 0.0276 0.1594 0.087 0.30972 0.14906 0.45817 0.0633 0.14792 0.14333 0.28756 0.23339 0.42059 0.10327 0.14529 0.23548 0.26529 0.37179 0.37862 0.15898 0.12752 0.33257 0.23446 0.50852 0.33654 0.18005 0.10585 0.37245 0.18789 0.56678 0.26335 0.19561 0.0702 0.39571 0.12715 0.59947 0.16792 0.20336 0.0415 0.40995 0.0587 0.61699 0.0663 0.21025 0.007 0.41903-0.0132 0.62571-0.0498 0.19934-0.0367 0.39222-0.0978 0.58019-0.17256 0.16196-0.0694 0.31617-0.15502 0.46069-0.25561 0.12551-0.0881 0.22129-0.20675 0.31232-0.32828 0.22679-0.39928 0.53611-0.92076-0.55464 0.95459-0.0121 0.0207 0.0231-0.042 0.0338-0.0635 0.0294-0.0591 0.0328-0.0717 0.057-0.13344 0.055-0.14869 0.0713-0.30495 0.0717-0.46226-0.007-0.17223-0.0384-0.3421-0.0789-0.50922-0.0447-0.18307-0.11681-0.35703-0.19562-0.52757-0.0892-0.18531-0.20116-0.35805-0.32036-0.52519-0.14206-0.19375-0.32408-0.35022-0.51304-0.49611-0.0376-0.0266-0.0752-0.0532-0.11287-0.0798l0.67189-1.1408c0.0393 0.0272 0.0787 0.0545 0.11804 0.0817 0.2005 0.15089 0.39418 0.31231 0.5486 0.51195 0.12659 0.17076 0.24419 0.3482 0.342 0.53725 0.0852 0.17495 0.1648 0.35274 0.2183 0.54037 0.0456 0.17249 0.0851 0.34636 0.10202 0.52445 0.0135 0.1643 0.0101 0.32895-0.0322 0.48944-0.15299 0.5679-0.50454 1.0692-0.85366 1.5384-0.10239 0.11941-0.21516 0.22844-0.35078 0.31019-0.15479 0.0941-0.31564 0.17849-0.48595 0.24128-0.19639 0.0698-0.39725 0.12687-0.60344 0.15973-0.21525 0.0318-0.4324 0.0479-0.65013 0.0377-0.21357-0.0109-0.42648-0.0317-0.63596-0.0765-0.21019-0.0455-0.4175-0.10374-0.61933-0.17836-0.19996-0.0794-0.39827-0.16429-0.58404-0.27362-0.1823-0.10545-0.3621-0.21577-0.52801-0.34606-0.14655-0.11891-0.28861-0.24504-0.40399-0.3954-0.099-0.13663-0.18547-0.2819-0.2564-0.4352-0.0683-0.15346-0.13518-0.30921-0.17186-0.47373-0.0387-0.16243-0.0609-0.32876-0.0498-0.49608 0.011-0.16406 0.0256-0.3282 0.0737-0.48645 0.15992-0.58516 0.54041-1.0852 0.85334-1.5963 0.10191-0.13792 0.21714-0.26501 0.34699-0.37741 0.13632-0.11431 0.27887-0.22198 0.43674-0.30521 0.15904-0.0819 0.32203-0.15685 0.49142-0.21492 0.16949-0.0571 0.3402-0.11108 0.5143-0.15249 0.17741-0.0397 0.35598-0.0746 0.53693-0.0939 0.17139-0.0177 0.34314-0.0339 0.51552-0.0372 0.14223-0.002 0.28411 0.005 0.42574 0.0182 0.1044 0.009 0.2088 0.0183 0.31259 0.0328 0.0629 0.01 0.12575 0.0203 0.18704 0.0379l-0.64333 1.1836z"/>
   <path id="path3797" d="m152.91 150.25c-0.0558-0.017-0.11378-0.0254-0.17135-0.034-0.10074-0.0138-0.202-0.0233-0.30327-0.0322-0.13718-0.0156-0.27463-0.0175-0.41245-0.0155-0.16815 0.007-0.33591 0.0218-0.50304 0.0412-0.17611 0.0226-0.34995 0.0582-0.52217 0.10091-0.17012 0.0448-0.33657 0.10137-0.50291 0.1582-0.16219 0.0638-0.31949 0.13874-0.4712 0.22442-0.14734 0.0908-0.28283 0.19886-0.40824 0.31777-0.1227 0.11613-0.22917 0.24575-0.31561 0.39068-0.24172 0.44277 0.0159-0.0305 0.58069-0.99862 0.0137-0.0234-0.0255 0.0479-0.0375 0.0722-0.0362 0.073-0.0654 0.14738-0.0929 0.22396-0.0525 0.15176-0.0806 0.30929-0.097 0.46851-0.0187 0.15874-0.008 0.31711 0.0186 0.47408 0.0276 0.1594 0.087 0.30972 0.14906 0.45818 0.0633 0.14792 0.14333 0.28756 0.2334 0.42059 0.10326 0.14528 0.23547 0.26528 0.37178 0.37861 0.15899 0.12753 0.33257 0.23446 0.50852 0.33654 0.18005 0.10585 0.37245 0.18789 0.56678 0.26335 0.19562 0.0702 0.39571 0.12715 0.59947 0.16792 0.20336 0.0415 0.40995 0.0587 0.617 0.0663 0.21024 0.007 0.41902-0.0132 0.62571-0.0498 0.19933-0.0367 0.39222-0.0978 0.58018-0.17256 0.16197-0.0694 0.31618-0.15502 0.4607-0.25561 0.1255-0.0881 0.22128-0.20674 0.31231-0.32828 0.22679-0.39928 0.53611-0.92076-0.55463 0.9546-0.0121 0.0207 0.0231-0.042 0.0338-0.0635 0.0294-0.0591 0.0327-0.0717 0.057-0.13344 0.055-0.14868 0.0713-0.30494 0.0717-0.46226-0.007-0.17223-0.0384-0.3421-0.0789-0.50922-0.0447-0.18307-0.11681-0.35703-0.19562-0.52757-0.0892-0.18531-0.20116-0.35805-0.32036-0.52519-0.14205-0.19375-0.32407-0.35022-0.51304-0.49611-0.0376-0.0266-0.0752-0.0532-0.11286-0.0798l0.67188-1.1408c0.0394 0.0272 0.0787 0.0545 0.11804 0.0817 0.2005 0.15089 0.39419 0.31231 0.5486 0.51195 0.1266 0.17076 0.2442 0.3482 0.342 0.53725 0.0852 0.17495 0.1648 0.35274 0.2183 0.54037 0.0457 0.17249 0.0851 0.34636 0.10202 0.52445 0.0135 0.1643 0.0101 0.32895-0.0321 0.48944-0.153 0.5679-0.50454 1.0692-0.85367 1.5384-0.10239 0.11941-0.21516 0.22844-0.35078 0.31019-0.15478 0.0941-0.31564 0.17849-0.48595 0.24128-0.19639 0.0698-0.39725 0.12687-0.60343 0.15973-0.21526 0.0318-0.43241 0.0479-0.65014 0.0377-0.21357-0.0109-0.42647-0.0317-0.63596-0.0765-0.21019-0.0455-0.41749-0.10374-0.61933-0.17836-0.19996-0.0794-0.39827-0.16429-0.58404-0.27362-0.1823-0.10545-0.36209-0.21576-0.52801-0.34606-0.14655-0.11891-0.28861-0.24503-0.40399-0.39539-0.099-0.13664-0.18547-0.28191-0.2564-0.43521-0.0683-0.15346-0.13518-0.30921-0.17186-0.47373-0.0387-0.16243-0.0609-0.32876-0.0497-0.49608 0.011-0.16406 0.0256-0.3282 0.0737-0.48645 0.15992-0.58516 0.54041-1.0852 0.85334-1.5963 0.10191-0.13793 0.21714-0.26502 0.34699-0.37742 0.13633-0.11431 0.27887-0.22198 0.43674-0.30521 0.15904-0.0819 0.32204-0.15684 0.49142-0.21492 0.1695-0.0571 0.3402-0.11108 0.5143-0.15249 0.17741-0.0397 0.35598-0.0746 0.53693-0.0939 0.17139-0.0177 0.34315-0.0339 0.51552-0.0372 0.14223-0.002 0.28411 0.005 0.42575 0.0182 0.10439 0.009 0.20879 0.0183 0.31258 0.0328 0.0629 0.01 0.12576 0.0203 0.18704 0.0379l-0.64333 1.1836z"/>
   <path id="path3799" d="m140.48 147.69c-0.0558-0.017-0.11378-0.0254-0.17135-0.034-0.10074-0.0138-0.202-0.0233-0.30327-0.0322-0.13718-0.0156-0.27463-0.0175-0.41245-0.0155-0.16815 0.007-0.33591 0.0218-0.50304 0.0412-0.17611 0.0226-0.34995 0.0582-0.52217 0.1009-0.17012 0.0448-0.33657 0.10137-0.50291 0.1582-0.16219 0.0638-0.31949 0.13874-0.4712 0.22442-0.14734 0.0908-0.28283 0.19886-0.40824 0.31777-0.1227 0.11613-0.22917 0.24575-0.31561 0.39069-0.24172 0.44276 0.0159-0.0305 0.58069-0.99863 0.0136-0.0234-0.0255 0.0479-0.0375 0.0722-0.0362 0.073-0.0654 0.14738-0.0929 0.22397-0.0525 0.15175-0.0806 0.30928-0.097 0.4685-0.0187 0.15874-0.008 0.31711 0.0186 0.47408 0.0276 0.1594 0.087 0.30972 0.14906 0.45818 0.0633 0.14792 0.14333 0.28756 0.2334 0.42059 0.10326 0.14528 0.23547 0.26528 0.37178 0.37861 0.15899 0.12753 0.33257 0.23446 0.50852 0.33655 0.18005 0.10584 0.37245 0.18788 0.56678 0.26334 0.19562 0.0702 0.39571 0.12715 0.59947 0.16792 0.20336 0.0416 0.40995 0.0587 0.617 0.0663 0.21024 0.007 0.41902-0.0132 0.62571-0.0498 0.19933-0.0367 0.39222-0.0978 0.58018-0.17256 0.16197-0.0694 0.31618-0.15502 0.4607-0.25561 0.1255-0.0882 0.22128-0.20674 0.31231-0.32828 0.22679-0.39928 0.53611-0.92075-0.55463 0.9546-0.0121 0.0207 0.0231-0.042 0.0338-0.0635 0.0294-0.0591 0.0327-0.0717 0.057-0.13344 0.055-0.14868 0.0713-0.30494 0.0717-0.46226-0.007-0.17223-0.0384-0.3421-0.0789-0.50922-0.0447-0.18307-0.11681-0.35702-0.19562-0.52756-0.0892-0.18532-0.20116-0.35806-0.32036-0.52519-0.14205-0.19376-0.32407-0.35023-0.51304-0.49611-0.0376-0.0266-0.0752-0.0532-0.11286-0.0798l0.67188-1.1408c0.0393 0.0272 0.0787 0.0545 0.11804 0.0817 0.2005 0.15088 0.39419 0.3123 0.5486 0.51194 0.1266 0.17076 0.2442 0.3482 0.342 0.53726 0.0852 0.17495 0.1648 0.35274 0.2183 0.54036 0.0457 0.1725 0.0851 0.34636 0.10202 0.52445 0.0135 0.1643 0.0101 0.32895-0.0321 0.48945-0.153 0.56789-0.50454 1.0692-0.85367 1.5384-0.10239 0.11941-0.21516 0.22845-0.35078 0.31019-0.15478 0.0941-0.31564 0.17849-0.48595 0.24128-0.19639 0.0698-0.39725 0.12687-0.60343 0.15973-0.21526 0.0318-0.43241 0.0479-0.65014 0.0377-0.21357-0.0109-0.42647-0.0317-0.63596-0.0765-0.21018-0.0455-0.41749-0.10374-0.61933-0.17836-0.19996-0.0794-0.39827-0.16429-0.58404-0.27362-0.1823-0.10545-0.36209-0.21576-0.52801-0.34606-0.14655-0.11891-0.28861-0.24503-0.40399-0.39539-0.099-0.13664-0.18547-0.28191-0.2564-0.43521-0.0683-0.15346-0.13518-0.30921-0.17186-0.47373-0.0387-0.16243-0.0609-0.32876-0.0497-0.49608 0.011-0.16406 0.0256-0.3282 0.0737-0.48645 0.15992-0.58515 0.54041-1.0852 0.85334-1.5963 0.10191-0.13793 0.21714-0.26501 0.34699-0.37742 0.13633-0.11431 0.27887-0.22198 0.43674-0.30521 0.15904-0.0819 0.32204-0.15684 0.49142-0.21492 0.1695-0.0571 0.3402-0.11108 0.5143-0.15249 0.17741-0.0397 0.35598-0.0746 0.53693-0.0939 0.17139-0.0177 0.34315-0.0338 0.51552-0.0372 0.14223-0.002 0.28411 0.005 0.42575 0.0182 0.10439 0.009 0.20879 0.0183 0.31258 0.0328 0.0629 0.01 0.12576 0.0204 0.18704 0.0379l-0.64333 1.1836z"/>
   <path id="path3801" d="m127.38 144.85c-0.0558-0.017-0.11379-0.0254-0.17136-0.034-0.10074-0.0138-0.202-0.0233-0.30327-0.0322-0.13717-0.0156-0.27463-0.0175-0.41245-0.0155-0.16814 0.007-0.33591 0.0218-0.50304 0.0412-0.17611 0.0226-0.34995 0.0582-0.52217 0.10091-0.17012 0.0448-0.33657 0.10136-0.5029 0.15819-0.16219 0.0638-0.3195 0.13874-0.47121 0.22442-0.14733 0.0908-0.28283 0.19886-0.40823 0.31778-0.12271 0.11612-0.22918 0.24575-0.31562 0.39068-0.24172 0.44276 0.0159-0.0305 0.58069-0.99862 0.0137-0.0234-0.0254 0.0479-0.0375 0.0722-0.0361 0.073-0.0654 0.14738-0.0929 0.22396-0.0525 0.15176-0.0806 0.30928-0.097 0.4685-0.0186 0.15874-0.008 0.31711 0.0186 0.47409 0.0276 0.15939 0.087 0.30972 0.14905 0.45817 0.0633 0.14792 0.14334 0.28756 0.2334 0.42059 0.10326 0.14529 0.23548 0.26529 0.37178 0.37861 0.15899 0.12753 0.33258 0.23446 0.50852 0.33655 0.18006 0.10585 0.37246 0.18789 0.56678 0.26335 0.19562 0.0702 0.39571 0.12714 0.59947 0.16792 0.20336 0.0415 0.40995 0.0587 0.617 0.0663 0.21025 0.007 0.41903-0.0132 0.62571-0.0498 0.19933-0.0367 0.39222-0.0978 0.58018-0.17255 0.16197-0.0694 0.31618-0.15503 0.4607-0.25562 0.1255-0.0881 0.22129-0.20674 0.31232-0.32827 0.22679-0.39929 0.5361-0.92076-0.55464 0.95459-0.0121 0.0207 0.0231-0.042 0.0338-0.0635 0.0294-0.0591 0.0327-0.0717 0.057-0.13344 0.055-0.14869 0.0713-0.30495 0.0717-0.46226-0.007-0.17223-0.0384-0.34211-0.0789-0.50923-0.0447-0.18306-0.11682-0.35702-0.19563-0.52756-0.0892-0.18531-0.20116-0.35805-0.32036-0.52519-0.14205-0.19376-0.32407-0.35022-0.51303-0.49611-0.0376-0.0266-0.0752-0.0532-0.11287-0.0798l0.67188-1.1408c0.0394 0.0272 0.0787 0.0545 0.11805 0.0817 0.20049 0.15089 0.39418 0.3123 0.5486 0.51195 0.12659 0.17076 0.24419 0.34819 0.342 0.53725 0.0852 0.17495 0.16479 0.35274 0.2183 0.54037 0.0457 0.17249 0.0851 0.34635 0.10202 0.52444 0.0135 0.1643 0.0101 0.32896-0.0322 0.48945-0.153 0.56789-0.50454 1.0692-0.85367 1.5384-0.10239 0.11941-0.21515 0.22845-0.35078 0.31019-0.15478 0.0941-0.31564 0.17849-0.48594 0.24128-0.1964 0.0698-0.39726 0.12688-0.60344 0.15973-0.21525 0.0318-0.43241 0.0479-0.65014 0.0377-0.21356-0.0109-0.42647-0.0317-0.63596-0.0765-0.21018-0.0455-0.41749-0.10374-0.61933-0.17837-0.19996-0.0794-0.39826-0.16429-0.58404-0.27361-0.1823-0.10546-0.36209-0.21577-0.52801-0.34606-0.14655-0.11892-0.2886-0.24504-0.40399-0.3954-0.099-0.13664-0.18546-0.28191-0.2564-0.4352-0.0683-0.15346-0.13518-0.30922-0.17186-0.47373-0.0387-0.16243-0.0609-0.32877-0.0498-0.49608 0.011-0.16407 0.0256-0.32821 0.0737-0.48645 0.15992-0.58516 0.54042-1.0852 0.85334-1.5963 0.10191-0.13792 0.21715-0.26501 0.347-0.37742 0.13632-0.11431 0.27886-0.22198 0.43673-0.3052 0.15904-0.0819 0.32204-0.15685 0.49143-0.21493 0.16949-0.0571 0.34019-0.11107 0.51429-0.15248 0.17742-0.0397 0.35598-0.0746 0.53694-0.0939 0.17138-0.0177 0.34314-0.0339 0.51551-0.0372 0.14223-0.002 0.28411 0.005 0.42575 0.0182 0.10439 0.009 0.20879 0.0183 0.31258 0.0328 0.0629 0.01 0.12576 0.0204 0.18704 0.0379l-0.64333 1.1836z"/>
   <path id="path3803" d="m114.41 142.55c-0.0558-0.017-0.11378-0.0254-0.17135-0.034-0.10074-0.0138-0.202-0.0233-0.30327-0.0322-0.13718-0.0156-0.27463-0.0175-0.41245-0.0155-0.16814 0.007-0.33591 0.0218-0.50304 0.0411-0.17611 0.0226-0.34995 0.0582-0.52217 0.10091-0.17012 0.0448-0.33657 0.10137-0.50291 0.1582-0.16219 0.0638-0.31949 0.13874-0.4712 0.22442-0.14734 0.0908-0.28283 0.19886-0.40824 0.31777-0.1227 0.11613-0.22917 0.24575-0.31561 0.39069-0.24172 0.44276 0.0159-0.0305 0.58069-0.99863 0.0136-0.0234-0.0255 0.0479-0.0375 0.0722-0.0362 0.073-0.0654 0.14738-0.0929 0.22397-0.0525 0.15175-0.0806 0.30928-0.097 0.4685-0.0186 0.15874-0.008 0.31711 0.0186 0.47408 0.0276 0.1594 0.0869 0.30972 0.14905 0.45818 0.0633 0.14792 0.14334 0.28756 0.2334 0.42059 0.10326 0.14528 0.23548 0.26528 0.37178 0.37861 0.15899 0.12753 0.33257 0.23446 0.50852 0.33655 0.18006 0.10584 0.37246 0.18788 0.56678 0.26334 0.19562 0.0702 0.39571 0.12715 0.59947 0.16792 0.20336 0.0415 0.40995 0.0587 0.617 0.0663 0.21024 0.007 0.41902-0.0132 0.62571-0.0498 0.19933-0.0367 0.39222-0.0978 0.58018-0.17256 0.16197-0.0694 0.31618-0.15502 0.4607-0.25561 0.1255-0.0882 0.22128-0.20674 0.31231-0.32828 0.22679-0.39928 0.53611-0.92075-0.55463 0.9546-0.0121 0.0207 0.0231-0.042 0.0338-0.0635 0.0294-0.0591 0.0328-0.0717 0.057-0.13344 0.055-0.14868 0.0713-0.30494 0.0717-0.46226-0.007-0.17223-0.0384-0.3421-0.0789-0.50922-0.0447-0.18307-0.11681-0.35702-0.19562-0.52756-0.0892-0.18532-0.20116-0.35806-0.32036-0.5252-0.14205-0.19375-0.32407-0.35022-0.51303-0.49611-0.0376-0.0266-0.0752-0.0532-0.11287-0.0798l0.67188-1.1408c0.0393 0.0272 0.0787 0.0545 0.11804 0.0817 0.2005 0.15089 0.39419 0.31231 0.54861 0.51195 0.12659 0.17076 0.24419 0.3482 0.34199 0.53726 0.0852 0.17495 0.1648 0.35274 0.2183 0.54036 0.0457 0.1725 0.0851 0.34636 0.10202 0.52445 0.0135 0.1643 0.0101 0.32895-0.0321 0.48944-0.153 0.5679-0.50454 1.0692-0.85367 1.5384-0.10239 0.11941-0.21515 0.22844-0.35078 0.31019-0.15478 0.0941-0.31564 0.17849-0.48595 0.24128-0.19639 0.0698-0.39725 0.12687-0.60343 0.15973-0.21526 0.0318-0.43241 0.0479-0.65014 0.0378-0.21357-0.0109-0.42647-0.0317-0.63596-0.0765-0.21018-0.0455-0.41749-0.10374-0.61933-0.17836-0.19996-0.0794-0.39826-0.16429-0.58404-0.27362-0.1823-0.10545-0.36209-0.21576-0.52801-0.34606-0.14655-0.11891-0.28861-0.24503-0.40399-0.39539-0.099-0.13664-0.18547-0.28191-0.2564-0.43521-0.0683-0.15346-0.13518-0.30921-0.17186-0.47373-0.0387-0.16243-0.0609-0.32876-0.0498-0.49608 0.011-0.16406 0.0256-0.3282 0.0737-0.48645 0.15992-0.58515 0.54042-1.0852 0.85334-1.5963 0.10191-0.13793 0.21714-0.26501 0.34699-0.37742 0.13633-0.11431 0.27887-0.22198 0.43674-0.30521 0.15904-0.0819 0.32204-0.15684 0.49142-0.21492 0.1695-0.0571 0.3402-0.11108 0.5143-0.15249 0.17741-0.0397 0.35598-0.0746 0.53694-0.0939 0.17138-0.0177 0.34314-0.0339 0.51551-0.0372 0.14223-0.002 0.28411 0.005 0.42575 0.0182 0.10439 0.009 0.20879 0.0183 0.31258 0.0328 0.0629 0.01 0.12576 0.0204 0.18704 0.0379l-0.64333 1.1836z"/>
   <path id="path3835" stroke="#000" stroke-width="1px" fill="#08a" d="m89.107 129.15l1.9643 5.8929"/>
   <g id="g3843" fill="url(#linearGradient3922)">
    <path id="path3837" d="m86.785 201.95c-1.7324-0.46636-3.1435-1.9266-3.6904-3.819-0.30426-1.0527-0.27687-4.4774 0.04929-6.163 0.34084-1.7614 1.3581-4.7495 2.2712-6.6715 0.88687-1.8667 3.3829-5.6488 5.3435-8.0967 0.82596-1.0312 4.8787-5.2902 9.0061-9.4643s8.6029-8.8392 9.9455-10.367c2.3013-2.6186 2.4847-2.8832 3.2022-4.6205 0.73507-1.7797 0.74953-1.8513 0.42199-2.0908-0.18654-0.1364-0.38803-0.22682-0.44776-0.20095-0.0597 0.0259-0.70225 0.73009-1.4278 1.5649-2.7659 3.1823-6.5341 7.189-10.125 10.765l-3.7264 3.7117-3.4742-0.87395c-4.128-1.0384-5.1103-1.4427-13.115-5.3984-6.4895-3.2068-8.5035-4.4045-10.627-6.3194-2.963-2.6719-4.6143-5.5378-5.7167-9.9211-0.70226-2.7924-3.8755-19.423-3.7253-19.524 2.3611-1.5849 3.5401-2.4271 6.4955-4.6396 1.9643-1.4705 4.2679-3.2324 5.119-3.9153 1.5276-1.2255 1.557-1.2642 2.2768-2.9985 0.40104-0.96635 0.72917-1.837 0.72917-1.9348 0-0.25839-0.69435-0.43842-0.94607-0.2453-0.11805 0.0906-0.8575 0.68673-1.6432 1.3248-2.2752 1.8477-8.4371 6.4289-10.465 7.7802-3.6427 2.4278-4.8486 2.9982-6.7616 3.1981-1.0972 0.11468-2.3274-0.16959-2.3274-0.5378 0-0.48443 3.4132-4.4891 6.0044-7.0449 2.7497-2.7121 2.7772-2.7471 3.4729-4.4187 0.3857-0.92674 0.70127-1.7629 0.70127-1.8582s-0.16287-0.26039-0.36192-0.36693c-0.32047-0.1715-0.59666 0.0357-2.4112 1.8087-1.1271 1.1013-2.0786 1.9692-2.1144 1.9285-0.09014-0.10226-0.96037-5.4059-1.2753-7.7723-0.33765-2.5371-0.33426-5.4549 0.0083-7.1753 0.23772-1.1937 0.36058-1.4538 0.9255-1.9593 0.85775-0.7675 2.4999-1.5272 4.1575-1.9233 1.9058-0.45544 7.4542-0.57443 9.2365-0.19808 3.4274 0.72376 5.4391 2.6935 7.1384 6.99 0.23308 0.58929 1.5493 5.0089 2.925 9.8214s3.0512 10.397 3.7234 12.411c1.6753 5.018 3.215 8.9218 3.4789 8.8206 0.12759-0.049 0.32907 0.28497 0.50626 0.83905l0.29432 0.92037-0.80538 1.6036c-0.44296 0.88199-0.77533 1.6337-0.7386 1.6704s0.54398-0.0118 1.1272-0.10788c2.0864-0.34363 7.9623-0.5133 11.954-0.34519 4.5044 0.1897 8.2029 0.5014 14.91 1.2565 14.444 1.6264 20.596 2.5999 30.982 4.9032 28.581 6.3385 47.03 13.928 55.625 22.883 1.0312 1.0745 2.1418 2.4038 2.468 2.954 0.65062 1.0976 1.3597 3.0187 1.5478 4.1932l0.12039 0.75187-0.95201 0.60791c-3.2401 2.069-7.0852 3.2433-13.809 4.2175-9.3485 1.3544-15.863 1.3973-27.321 0.1797-8.8637-0.94189-21.805-2.7243-27.232-3.7508-2.6027-0.49223-4.9246-0.95646-5.1599-1.0316-0.39852-0.12733-0.27649-0.27568 1.7857-2.1707 1.2174-1.1187 3.5394-3.0921 5.1599-4.3852 1.6205-1.2932 3.0748-2.5034 3.2316-2.6894 0.27615-0.32751 1.5898-3.4754 1.5898-3.8096 0-0.0909-0.16876-0.21887-0.37502-0.28433-0.2732-0.0867-0.52772 0.0244-0.9375 0.40935-0.30936 0.2906-1.7357 1.4545-3.1696 2.5864s-3.6223 3.0115-4.8631 4.1768c-1.2408 1.1654-4.4725 4.2081-7.1817 6.7617-8.8051 8.2995-10.932 10.182-15.259 13.508-4.1885 3.2192-15.998 11.486-18.482 12.937-2.8167 1.6457-5.1842 2.1699-7.2673 1.6091zm111.92-31.91c0.15709-0.30377 0.25083-0.58709 0.20831-0.62961-0.0425-0.0425-0.83192-0.19858-1.7542-0.34681-2.0276-0.32587-4.695-0.98535-6.4125-1.5854-3.4127-1.1923-5.3385-3.234-4.6403-4.9196 0.22011-0.53138 2.5885-2.9145 3.4715-3.4931 0.45058-0.29523 1.0967-1.4653 0.91149-1.6505-0.11533-0.11533-0.98985 0.5672-2.4638 1.9229-0.72711 0.66876-1.561 1.6856-2.0982 2.5586-0.74745 1.2146-0.89156 1.5885-0.89156 2.3133 0 1.0741 0.28787 1.6443 1.302 2.5791 1.4725 1.3573 4.2742 2.4346 8.75 3.3643 2.8321 0.58831 3.2615 0.57488 3.6173-0.11319zm-31.4-12.477c1.0491-0.63965 1.6232-2.4416 1.101-3.4556-0.28382-0.55107-0.89559-1.1936-1.1365-1.1936-0.11201 0-0.32968 0.26429-0.48372 0.58731-0.27273 0.57193-0.26668 0.60229 0.23104 1.1593 0.62453 0.69898 0.84702 1.4416 0.49812 1.6627-1.3112 0.831-3.9098-0.24736-4.1954-1.741-0.14944-0.78147 0.45433-1.1539 2.0563-1.2686 1.1819-0.0846 1.2314-0.10736 1.512-0.69572 0.2619-0.54922 0.26296-0.61868 0.0109-0.7154-0.44204-0.16963-2.0152 0.0754-2.7257 0.42463-0.94559 0.4647-1.6788 1.6112-1.7754 2.7762-0.07 0.84401-0.0219 1.0198 0.42383 1.5495 1.0163 1.2078 3.2513 1.6615 4.4836 0.91018zm-13.777-2.8432c0.5608-0.25473 0.8408-0.55142 1.24-1.314 0.47838-0.91371 0.49991-1.0376 0.29766-1.7126-0.22014-0.73477-0.99313-1.8152-1.2987-1.8152-0.0911 0-0.2969 0.27538-0.4574 0.61196-0.28529 0.59825-0.28123 0.62454 0.18151 1.1745 0.54691 0.64997 0.77646 1.3746 0.51749 1.6336-0.29749 0.29748-1.567 0.38554-2.2601 0.15677-0.84441-0.27867-1.6089-0.9307-1.8917-1.6134-0.19397-0.46829-0.18273-0.59092 0.0809-0.88221 0.3707-0.40962 1.894-0.80231 2.5801-0.66509 0.43457 0.0869 0.53548 0.0192 0.80097-0.53756 0.16707-0.35034 0.26577-0.67498 0.21934-0.72141-0.16-0.16-1.919-0.0698-2.5225 0.1294-1.201 0.39635-2.331 2.196-2.169 3.4543 0.22616 1.7568 2.8483 2.9336 4.6814 2.101zm-12.343-2.5933c0.89235-0.37285 1.6012-1.6637 1.4842-2.7026-0.0915-0.81138-0.85199-2.0468-1.2587-2.0446-0.11777 0.00054-0.35415 0.24716-0.52529 0.54785-0.30752 0.54034-0.30516 0.55441 0.20229 1.2042 0.2824 0.36163 0.56376 0.8752 0.62523 1.1413 0.10299 0.44572 0.0543 0.49925-0.61902 0.68055-0.87689 0.23612-1.6099 0.10604-2.5961-0.46071-0.74705-0.42934-1.2236-1.2036-1.1112-1.8056 0.0908-0.48625 1.1802-0.95103 2.2298-0.95135 0.86366-0.00018 0.94263-0.0389 1.2924-0.63173 0.45361-0.76881 0.2722-0.8979-1.043-0.74214-1.3032 0.15435-2.0721 0.5529-2.6766 1.3874-0.84285 1.1635-0.99503 1.9597-0.56176 2.9392 0.29664 0.6706 0.51534 0.87992 1.3021 1.2462 1.0797 0.50266 2.3351 0.57672 3.2557 0.19207zm-12.659-3.1466c0.49524-0.46231 1.1527-1.6027 1.151-1.9965-0.004-0.89924-0.92744-2.4625-1.4548-2.4625-0.0864 0-0.29128 0.28136-0.45526 0.62523-0.29405 0.61663-0.2916 0.63208 0.17829 1.1225 0.26204 0.27351 0.52775 0.75385 0.59046 1.0674 0.10173 0.50866 0.0588 0.59145-0.39861 0.76799-0.72172 0.27856-1.9857 0.0653-2.7976-0.4719-0.7033-0.46542-1.2718-1.4592-1.0964-1.9164 0.15287-0.39838 0.96119-0.6923 2.1843-0.79425 1.0168-0.0847 1.15-0.14315 1.3912-0.60957 0.3363-0.65035 0.20606-0.86249-0.52955-0.86249-1.1139 0-2.3671 0.50328-2.9738 1.1943-1.5548 1.7708-1.3438 3.5152 0.54268 4.4866 1.1217 0.57757 2.9692 0.50175 3.668-0.15053zm-13.275-2.0731c0.6203-0.31389 1.3909-1.6246 1.3909-2.3658 0-0.86299-0.83632-2.3432-1.3223-2.3404-0.10755 0.00054-0.33916 0.25342-0.51469 0.56177-0.30973 0.5441-0.30866 0.5718 0.0361 0.93881 0.1954 0.20799 0.48559 0.69008 0.64488 1.0713 0.2371 0.56746 0.24674 0.72033 0.0532 0.84315-0.75552 0.47935-2.3107 0.3224-3.313-0.33435-0.48635-0.31867-0.94129-1.1112-0.94129-1.6398 0-0.49891 0.89419-0.92411 2.1906-1.0417 0.94772-0.0859 1.0971-0.15517 1.3964-0.64734 0.3321-0.5461 0.33171-0.55239-0.0424-0.6908-0.5623-0.208-1.9819 0.0334-2.7586 0.46911-1.4367 0.8059-2.1774 2.9345-1.4222 4.0871 0.86481 1.3199 3.1007 1.8488 4.6026 1.0888z"/>
    <path id="path3839" d="m82.751 99.27c-0.52771-1.6301-1.2632-3.5593-1.6344-4.287l-0.67497-1.3231 0.96989-0.3831c2.7451-1.0843 4.6368-0.76502 5.4007 0.91144 0.48979 1.075-0.0087 3.0582-1.0598 4.2166-0.35647 0.39286-0.96173 1.4151-1.345 2.2716l-0.6969 1.5574-0.95947-2.9639z"/>
    <path id="path3841" d="m162.74 141.4c-5.1276-1.4234-16.744-4.085-22.022-5.0456l-4.5216-0.823 3.2716-2.703c4.3842-3.6223 14.717-11.295 20.3-15.074 8.486-5.7444 14.392-8.1316 20.182-8.1579 3.2791-0.0149 4.7966 0.49852 6.201 2.098 1.0762 1.2257 1.1199 1.3949 0.99578 3.8528-0.12184 2.4128-0.22834 2.6987-1.7328 4.6521-0.88161 1.1447-4.5761 5.148-8.2101 8.8961-7.4747 7.7096-9.3083 9.8438-9.9928 11.631-0.26338 0.6875-0.57364 1.3436-0.68948 1.4579-0.11584 0.11435-1.8178-0.23823-3.782-0.7835z"/>
   </g>
   <g id="g3886" transform="matrix(.48139 .11078 -.11078 .48139 201.94 122.61)">
    <rect id="rect3862" height="18.214" width="10" y="98.076" x="-54.643" fill="#ff003e"/>
    <rect id="rect3882" height="18.214" width="10" y="98.076" x="-45" fill="#f7ff00"/>
    <rect id="rect3884" height="18.214" width="10" y="98.076" x="-35" fill="#003dff"/>
   </g>
  </g>
 </g>
 <metadata>
  <rdf:RDF>
   <cc:Work>
    <dc:format>image/svg+xml</dc:format>
    <dc:type rdf:resource="http://purl.org/dc/dcmitype/StillImage"/>
    <cc:license rdf:resource="http://creativecommons.org/licenses/publicdomain/"/>
    <dc:publisher>
     <cc:Agent rdf:about="http://openclipart.org/">
      <dc:title>Openclipart</dc:title>
     </cc:Agent>
    </dc:publisher>
   </cc:Work>
   <cc:License rdf:about="http://creativecommons.org/licenses/publicdomain/">
    <cc:permits rdf:resource="http://creativecommons.org/ns#Reproduction"/>
    <cc:permits rdf:resource="http://creativecommons.org/ns#Distribution"/>
    <cc:permits rdf:resource="http://creativecommons.org/ns#DerivativeWorks"/>
   </cc:License>
  </rdf:RDF>
 </metadata>
</svg>
