<svg xmlns="http://www.w3.org/2000/svg" version="1.0" width="1280.000000pt" height="1269.000000pt" viewBox="0 0 1280.000000 1269.000000" preserveAspectRatio="xMidYMid meet">
<metadata>
Created by potrace 1.15, written by Peter Selinger 2001-2017
</metadata>
<g transform="translate(0.000000,1269.000000) scale(0.100000,-0.100000)" fill="#555555" stroke="none">
<path d="M8202 12675 c-48 -21 -144 -117 -227 -226 -176 -234 -640 -979 -768 -1234 -111 -221 -142 -339 -134 -510 6 -145 38 -276 125 -510 73 -199 90 -232 141 -278 92 -83 206 -61 473 90 319 181 429 282 496 453 82 211 99 420 108 1295 7 664 2 781 -36 854 -36 72 -105 98 -178 66z"/>
<path d="M4914 12332 c-74 -47 -115 -125 -219 -418 -171 -480 -143 -596 213 -896 239 -200 364 -251 483 -196 88 41 214 180 279 308 56 111 75 194 75 325 0 97 -4 134 -23 195 -43 138 -125 265 -245 376 -103 97 -324 270 -375 295 -65 31 -148 36 -188 11z"/>
<path d="M6355 11396 c-109 -34 -191 -101 -410 -332 -295 -311 -362 -368 -474 -401 -80 -23 -227 -12 -436 32 -608 129 -596 127 -715 128 -98 2 -122 -1 -160 -19 -92 -42 -134 -106 -176 -270 -32 -122 -41 -247 -24 -308 28 -101 131 -171 338 -230 66 -19 295 -74 509 -122 213 -48 391 -90 395 -93 3 -3 49 -217 102 -476 52 -258 103 -506 114 -550 156 -649 395 -1047 680 -1135 54 -17 71 -18 105 -9 78 21 130 103 158 250 20 103 14 398 -11 593 -40 312 -65 422 -236 1024 -63 222 -114 407 -114 412 0 4 116 131 257 282 563 600 617 668 630 793 11 104 -70 215 -260 356 -109 82 -185 103 -272 75z"/>
<path d="M1848 11233 c-24 -6 -41 -57 -36 -106 14 -120 283 -660 654 -1314 297 -523 421 -685 589 -768 98 -49 177 -63 432 -76 362 -19 465 6 528 130 25 51 29 160 11 321 -38 322 -116 565 -219 677 -153 166 -1129 783 -1658 1048 -169 85 -237 105 -301 88z"/>
<path d="M10431 10659 c-35 -4 -125 -19 -200 -33 -390 -72 -499 -171 -591 -536 -76 -302 -65 -467 37 -572 101 -104 301 -118 655 -48 229 46 331 94 396 184 67 93 89 208 98 515 7 232 -1 322 -36 392 -22 43 -68 81 -119 98 -38 12 -144 13 -240 0z"/>
<path d="M8792 10600 c-155 -41 -226 -92 -263 -190 -17 -45 -21 -78 -21 -180 -1 -148 11 -233 103 -735 55 -302 66 -382 57 -391 -7 -6 -99 -92 -203 -190 -420 -395 -644 -591 -750 -660 -73 -46 -123 -101 -193 -214 -73 -117 -187 -341 -236 -467 -108 -274 -92 -363 69 -378 269 -26 655 156 1070 504 92 77 355 336 689 679 l189 194 366 -136 c656 -243 741 -266 856 -235 58 16 115 80 143 159 64 185 79 367 38 455 -59 127 -186 200 -649 375 -280 106 -440 185 -505 248 -89 87 -112 153 -172 492 -58 327 -87 426 -159 537 -90 139 -234 184 -429 133z"/>
<path d="M6693 10341 c-91 -25 -138 -49 -187 -97 -59 -57 -79 -112 -84 -225 -6 -128 12 -213 98 -469 38 -113 78 -250 89 -305 51 -251 52 -482 5 -735 -25 -131 -28 -168 -28 -380 -1 -230 0 -236 26 -308 51 -142 119 -212 205 -212 79 0 275 142 383 276 113 141 203 312 244 464 54 196 275 479 533 682 393 308 457 382 457 523 -1 82 -19 133 -94 269 -89 161 -171 235 -261 236 -88 0 -159 -32 -476 -218 l-222 -130 -52 117 c-122 271 -175 358 -266 434 -106 88 -232 115 -370 78z"/>
<path d="M4460 9789 c-91 -15 -219 -60 -268 -93 -133 -90 -164 -230 -127 -576 19 -178 20 -289 1 -296 -15 -6 -150 18 -376 66 -80 17 -179 33 -222 37 -228 18 -318 -93 -318 -393 0 -119 19 -179 74 -241 78 -86 166 -123 501 -208 466 -119 720 -244 971 -477 152 -141 285 -237 427 -307 113 -56 193 -75 307 -76 82 0 101 3 137 24 57 33 82 70 91 139 20 146 -50 311 -314 743 -211 344 -311 560 -389 839 -29 107 -43 203 -49 353 -3 65 -13 148 -22 185 -20 84 -68 175 -108 209 -76 64 -199 93 -316 72z"/>
<path d="M2390 9094 c-309 -90 -363 -197 -285 -567 18 -89 207 -814 241 -929 4 -12 -45 -58 -178 -169 -476 -398 -631 -548 -692 -669 -45 -92 -53 -142 -31 -217 15 -50 28 -69 94 -134 240 -236 440 -195 976 201 337 249 427 286 639 261 97 -11 177 -30 656 -155 554 -144 970 -193 1172 -138 231 63 318 189 238 348 -95 190 -452 401 -930 547 -145 45 -351 96 -825 205 l-250 57 -63 195 c-291 900 -331 1006 -415 1098 -86 93 -187 113 -347 66z"/>
<path d="M1345 8484 c-98 -23 -188 -51 -505 -156 -201 -66 -369 -124 -374 -128 -8 -8 249 -396 376 -566 212 -285 404 -360 719 -280 228 58 576 204 646 272 l44 41 -19 50 c-23 62 -96 161 -254 345 -282 331 -390 415 -539 423 -41 2 -83 2 -94 -1z"/>
<path d="M9568 8286 c-102 -37 -165 -102 -406 -422 -184 -246 -330 -396 -457 -473 -51 -31 -60 -33 -162 -35 -94 -2 -122 -8 -217 -40 -271 -91 -567 -286 -659 -433 -15 -24 -32 -62 -39 -87 -38 -142 133 -265 454 -327 131 -25 322 -30 409 -11 31 7 86 31 122 52 56 34 74 40 122 40 136 0 267 -31 618 -146 396 -129 622 -184 761 -184 64 0 78 4 119 31 157 104 223 287 168 468 -25 83 -93 178 -163 230 -51 38 -56 51 -11 28 55 -29 319 -115 389 -127 106 -19 286 -8 403 24 197 55 524 205 941 432 580 315 814 483 836 599 14 78 -28 139 -119 170 -62 20 -222 28 -1042 50 -619 17 -795 12 -939 -25 -216 -55 -351 -168 -593 -494 -208 -280 -220 -414 -48 -544 l30 -22 -55 21 c-30 11 -73 31 -95 44 -156 90 -148 185 39 485 93 148 101 169 100 260 0 62 -5 85 -30 135 -35 71 -121 166 -213 235 -101 76 -179 96 -263 66z"/>
<path d="M6262 7399 c-142 -18 -222 -59 -372 -190 -406 -354 -497 -531 -431 -844 23 -107 89 -310 136 -417 100 -227 235 -351 462 -422 235 -73 472 -92 626 -48 147 42 249 107 403 258 154 151 228 268 260 412 29 132 3 447 -52 610 -108 323 -481 603 -855 642 -55 5 -104 9 -108 9 -3 -1 -35 -5 -69 -10z"/>
<path d="M10942 6639 c-94 -18 -230 -109 -417 -280 -44 -40 -194 -181 -333 -313 -139 -133 -257 -242 -262 -244 -5 -2 -190 55 -412 127 -717 230 -861 271 -1098 312 -113 20 -351 18 -428 -3 -75 -21 -262 -108 -310 -144 -71 -55 -89 -121 -53 -193 25 -48 183 -198 272 -257 167 -111 581 -286 923 -390 291 -89 474 -149 586 -194 119 -47 266 -118 279 -134 4 -6 18 -56 31 -111 51 -227 205 -649 315 -865 105 -204 142 -231 293 -211 111 14 237 50 297 86 99 57 137 176 115 351 -16 131 -34 214 -140 636 -50 196 -90 359 -90 361 0 3 134 128 298 280 381 352 528 503 566 582 58 118 37 212 -89 400 -112 168 -214 229 -343 204z"/>
<path d="M2705 6621 c-113 -30 -191 -125 -235 -285 -29 -103 -25 -210 9 -279 31 -63 117 -156 189 -204 31 -20 141 -79 243 -130 102 -50 192 -99 199 -108 20 -24 3 -53 -151 -260 -74 -99 -149 -210 -168 -245 -97 -182 -66 -296 124 -462 213 -186 343 -172 571 63 51 52 135 144 187 205 162 189 299 313 481 436 131 88 231 134 413 194 240 78 418 168 494 250 60 65 172 271 183 334 9 55 -29 118 -94 157 -103 62 -229 86 -455 86 -191 0 -280 -10 -475 -55 -114 -26 -156 -31 -270 -32 -204 -1 -301 26 -635 174 -270 120 -391 160 -500 165 -44 2 -93 1 -110 -4z"/>
<path d="M1860 5991 c-194 -40 -1030 -491 -1545 -834 -158 -105 -224 -157 -274 -213 -34 -39 -41 -54 -41 -89 0 -38 4 -45 32 -62 52 -30 243 -49 948 -94 236 -15 453 -23 685 -23 316 -1 347 1 440 21 217 48 312 106 525 321 170 172 317 348 356 428 34 69 26 108 -33 174 -171 191 -848 420 -1093 371z"/>
<path d="M5162 5545 c-259 -73 -525 -263 -1067 -765 -343 -317 -429 -380 -560 -415 -113 -29 -212 -18 -571 61 -315 69 -408 84 -519 84 -89 0 -107 -3 -154 -26 -91 -46 -133 -126 -177 -334 -28 -136 -29 -169 -8 -240 22 -75 89 -138 191 -180 43 -18 195 -62 338 -97 429 -105 463 -114 548 -157 147 -74 179 -139 292 -599 41 -166 89 -346 106 -400 58 -181 134 -273 244 -298 49 -11 68 -10 160 10 361 75 443 161 405 422 -6 46 -65 298 -131 559 -65 261 -119 477 -119 481 0 3 116 111 257 240 478 436 743 698 922 914 117 142 257 388 287 505 27 107 -16 187 -123 225 -67 24 -251 30 -321 10z"/>
<path d="M7313 5480 c-68 -41 -89 -111 -73 -232 41 -298 153 -513 390 -748 106 -105 133 -138 167 -205 83 -162 111 -278 143 -576 32 -309 81 -467 176 -569 58 -62 127 -96 228 -110 105 -16 184 -5 259 34 156 80 205 267 163 613 -9 73 -16 153 -16 178 0 38 3 45 20 45 11 0 20 -6 20 -12 0 -21 68 -628 80 -708 53 -377 187 -535 755 -888 400 -250 845 -510 1041 -608 93 -48 119 -56 164 -56 49 0 57 3 87 36 33 35 39 60 34 136 -6 82 -107 320 -296 695 -436 864 -558 1037 -820 1165 -114 56 -195 81 -455 140 -102 23 -194 45 -205 50 -13 6 20 9 93 9 174 1 262 38 351 146 23 28 52 81 68 124 25 68 28 89 28 201 0 142 -13 180 -81 240 -79 69 -183 101 -504 155 -449 76 -641 159 -889 387 -149 137 -377 275 -541 327 -170 54 -329 67 -387 31z"/>
<path d="M11360 5463 c-82 -14 -213 -55 -477 -149 -163 -58 -299 -107 -301 -109 -2 -2 81 -129 184 -282 311 -461 345 -501 453 -551 47 -22 69 -26 141 -25 156 2 609 128 773 215 104 56 157 145 142 240 -13 82 -113 262 -220 396 -152 190 -323 273 -555 271 -63 -1 -126 -4 -140 -6z"/>
<path d="M5967 5236 c-52 -19 -138 -86 -232 -180 -138 -138 -252 -348 -321 -589 -57 -203 -114 -305 -249 -446 -109 -114 -197 -184 -447 -352 -306 -207 -388 -292 -388 -400 0 -24 9 -64 21 -88 43 -95 235 -303 317 -342 62 -30 144 -36 218 -14 75 22 155 62 361 183 92 55 178 104 190 111 21 11 25 4 106 -161 101 -205 146 -277 224 -355 84 -84 168 -125 263 -131 140 -8 280 48 346 138 48 65 68 139 66 240 -2 126 -34 234 -156 530 -45 110 -63 179 -81 318 -22 163 -19 285 10 458 53 313 53 592 1 797 -49 190 -93 267 -164 287 -44 12 -38 12 -85 -4z"/>
<path d="M6679 5227 c-103 -69 -213 -363 -255 -681 -27 -202 -7 -331 59 -378 78 -56 164 -329 335 -1063 l49 -210 -321 -325 c-327 -331 -420 -439 -478 -558 -30 -61 -33 -74 -33 -163 0 -96 0 -97 49 -194 56 -110 131 -199 191 -226 22 -10 63 -19 92 -19 135 0 252 82 642 449 319 300 381 343 507 349 93 5 168 -15 525 -144 158 -57 326 -115 373 -128 273 -80 373 -24 435 240 96 414 -132 639 -831 818 -193 49 -238 75 -299 168 -70 109 -116 258 -204 663 -130 597 -360 1116 -586 1319 -54 49 -159 106 -194 106 -12 0 -37 -10 -56 -23z"/>
<path d="M2830 3389 c-83 -14 -263 -57 -380 -91 -256 -73 -359 -158 -404 -333 -23 -92 -36 -292 -36 -572 0 -232 1 -254 18 -261 9 -4 69 -7 132 -6 125 1 417 45 594 90 282 71 386 189 470 536 91 372 72 548 -67 620 -35 18 -62 22 -157 24 -63 2 -140 -2 -170 -7z"/>
<path d="M5238 2946 c-87 -31 -217 -104 -312 -175 -156 -117 -312 -287 -346 -378 -116 -310 -188 -2005 -98 -2303 21 -72 82 -107 142 -84 44 17 333 447 756 1124 370 591 428 711 438 891 4 83 1 109 -21 185 -47 166 -225 571 -289 660 -67 94 -158 121 -270 80z"/>
<path d="M7451 1988 c-119 -27 -213 -144 -281 -348 -132 -393 -99 -614 123 -816 68 -63 241 -189 325 -239 227 -133 368 -90 476 146 80 176 145 414 146 535 0 157 -58 261 -244 442 -230 222 -406 313 -545 280z"/>
</g>
</svg>