<?xml version="1.0"?>
<svg xmlns:rdf="http://www.w3.org/1999/02/22-rdf-syntax-ns#" xmlns="http://www.w3.org/2000/svg" xmlns:cc="http://web.resource.org/cc/" xmlns:xlink="http://www.w3.org/1999/xlink" xmlns:dc="http://purl.org/dc/elements/1.1/" id="svg2" viewBox="0 0 382.24 392.89" version="1.0">
 <defs id="defs3">
  <linearGradient id="linearGradient14012">
   <stop id="stop14014" stop-color="#549448" offset="0"/>
   <stop id="stop14016" stop-color="#549448" stop-opacity="0" offset="1"/>
  </linearGradient>
  <radialGradient id="radialGradient14106" xlink:href="#linearGradient14012" gradientUnits="userSpaceOnUse" cy="250.34" cx="66.273" gradientTransform="matrix(.97215 -.011626 .059780 1.4095 -13.12 -101.74)" r="15.255"/>
  <radialGradient id="radialGradient14108" xlink:href="#linearGradient14012" gradientUnits="userSpaceOnUse" cy="250.34" cx="66.273" gradientTransform="matrix(.97190 -.027140 .13299 1.2853 -31.43 -69.631)" r="15.255"/>
 </defs>
 <g id="layer1" transform="translate(-182.95 -350.95)">
  <g id="g14083" transform="translate(179.67 152.5)">
   <path id="path13968" d="m102.03 293.97c-1.82-0.02-3.431 1.17-3.959 2.91s0.156 3.62 1.679 4.62c45.52 30.78 97.93 88.37 139.47 126.97l0.06 0.06c48.27 52.13 82.23 100.02 132.21 161.31 0.87 1.27 7.87 0.88 9.4 0.68s2.81-1.25 3.32-2.7c0.52-1.46 1.23-7.68 0.16-8.79-50.26-61.65-89.31-93.96-138.75-155.69l-0.18-0.25-0.22-0.18c-41.12-38.15-93.7-96.29-140.88-128.19-0.67-0.48-1.48-0.74-2.31-0.75z" fill-rule="evenodd" stroke="#000" stroke-linecap="round" stroke-width="1.2" fill="#427638"/>
   <g id="g14035">
    <path id="path14007" stroke-linejoin="round" d="m101.38 296.31c-39.605-14.06-74.453-52.29-62.338-75.99 0.053-0.1 17.205-22.51 38.777-3.33 11.836-25.56 29.401-16.77 30.261-16.34 23.73 11.82 19.06 55.9-6.7 95.66z" fill-rule="evenodd" stroke="#000" stroke-linecap="round" stroke-width=".8" fill="#3a6831"/>
    <path id="path14010" fill-rule="evenodd" fill="url(#radialGradient14106)" transform="matrix(.57064 -1.2177 1.0104 1.2168 -224.24 21.423)" d="m81.528 250.34a15.255 20.257 0 1 1 -30.51 0 15.255 20.257 0 1 1 30.51 0z"/>
    <path id="path14020" fill-rule="evenodd" fill="url(#radialGradient14108)" transform="matrix(1.1146 -.87814 .26335 1.7752 -38.261 -147.61)" d="m81.528 250.34a15.255 20.257 0 1 1 -30.51 0 15.255 20.257 0 1 1 30.51 0z"/>
    <path id="path14026" stroke="#000" stroke-width=".1" fill="none" d="m101.53 296.1c-5.705-11.69-5.111-25.64-12.351-36.7-5.404-13.46-10.055-27.34-12.109-41.74 0.065-0.55 0.323-1.05 0.457-1.59"/>
   </g>
   <g id="g14041" transform="matrix(.026498 .99965 -.99965 .026498 397.33 187.89)">
    <path id="path14043" stroke-linejoin="round" d="m101.38 296.31c-39.605-14.06-74.453-52.29-62.338-75.99 0.053-0.1 17.205-22.51 38.777-3.33 11.836-25.56 29.401-16.77 30.261-16.34 23.73 11.82 19.06 55.9-6.7 95.66z" fill-rule="evenodd" stroke="#000" stroke-linecap="round" stroke-width=".8" fill="#3a6831"/>
    <path id="path14045" fill-rule="evenodd" fill="url(#radialGradient14106)" transform="matrix(.57064 -1.2177 1.0104 1.2168 -224.24 21.423)" d="m81.528 250.34a15.255 20.257 0 1 1 -30.51 0 15.255 20.257 0 1 1 30.51 0z"/>
    <path id="path14047" fill-rule="evenodd" fill="url(#radialGradient14108)" transform="matrix(1.1146 -.87814 .26335 1.7752 -38.261 -147.61)" d="m81.528 250.34a15.255 20.257 0 1 1 -30.51 0 15.255 20.257 0 1 1 30.51 0z"/>
    <path id="path14049" stroke="#000" stroke-width=".1" fill="none" d="m101.53 296.1c-5.705-11.69-5.111-25.64-12.351-36.7-5.404-13.46-10.055-27.34-12.109-41.74 0.065-0.55 0.323-1.05 0.457-1.59"/>
   </g>
   <g id="g14055" transform="matrix(-.060956 -.99814 .99814 -.060956 -188.67 416.7)">
    <path id="path14057" stroke-linejoin="round" d="m101.38 296.31c-39.605-14.06-74.453-52.29-62.338-75.99 0.053-0.1 17.205-22.51 38.777-3.33 11.836-25.56 29.401-16.77 30.261-16.34 23.73 11.82 19.06 55.9-6.7 95.66z" fill-rule="evenodd" stroke="#000" stroke-linecap="round" stroke-width=".8" fill="#3a6831"/>
    <path id="path14059" fill-rule="evenodd" fill="url(#radialGradient14106)" transform="matrix(.57064 -1.2177 1.0104 1.2168 -224.24 21.423)" d="m81.528 250.34a15.255 20.257 0 1 1 -30.51 0 15.255 20.257 0 1 1 30.51 0z"/>
    <path id="path14061" fill-rule="evenodd" fill="url(#radialGradient14108)" transform="matrix(1.1146 -.87814 .26335 1.7752 -38.261 -147.61)" d="m81.528 250.34a15.255 20.257 0 1 1 -30.51 0 15.255 20.257 0 1 1 30.51 0z"/>
    <path id="path14063" stroke="#000" stroke-width=".1" fill="none" d="m101.53 296.1c-5.705-11.69-5.111-25.64-12.351-36.7-5.404-13.46-10.055-27.34-12.109-41.74 0.065-0.55 0.323-1.05 0.457-1.59"/>
   </g>
   <g id="g14069" transform="matrix(-.99938 .035273 -.035273 -.99938 213.79 591.22)">
    <path id="path14071" stroke-linejoin="round" d="m101.38 296.31c-39.605-14.06-74.453-52.29-62.338-75.99 0.053-0.1 17.205-22.51 38.777-3.33 11.836-25.56 29.401-16.77 30.261-16.34 23.73 11.82 19.06 55.9-6.7 95.66z" fill-rule="evenodd" stroke="#000" stroke-linecap="round" stroke-width=".8" fill="#3a6831"/>
    <path id="path14073" fill-rule="evenodd" fill="url(#radialGradient14106)" transform="matrix(.57064 -1.2177 1.0104 1.2168 -224.24 21.423)" d="m81.528 250.34a15.255 20.257 0 1 1 -30.51 0 15.255 20.257 0 1 1 30.51 0z"/>
    <path id="path14075" fill-rule="evenodd" fill="url(#radialGradient14108)" transform="matrix(1.1146 -.87814 .26335 1.7752 -38.261 -147.61)" d="m81.528 250.34a15.255 20.257 0 1 1 -30.51 0 15.255 20.257 0 1 1 30.51 0z"/>
    <path id="path14077" stroke="#000" stroke-width=".1" fill="none" d="m101.53 296.1c-5.705-11.69-5.111-25.64-12.351-36.7-5.404-13.46-10.055-27.34-12.109-41.74 0.065-0.55 0.323-1.05 0.457-1.59"/>
   </g>
  </g>
 </g>
 <metadata>
  <rdf:RDF>
   <cc:Work>
    <dc:format>image/svg+xml</dc:format>
    <dc:type rdf:resource="http://purl.org/dc/dcmitype/StillImage"/>
    <cc:license rdf:resource="http://creativecommons.org/licenses/publicdomain/"/>
    <dc:publisher>
     <cc:Agent rdf:about="http://openclipart.org/">
      <dc:title>Openclipart</dc:title>
     </cc:Agent>
    </dc:publisher>
   </cc:Work>
   <cc:License rdf:about="http://creativecommons.org/licenses/publicdomain/">
    <cc:permits rdf:resource="http://creativecommons.org/ns#Reproduction"/>
    <cc:permits rdf:resource="http://creativecommons.org/ns#Distribution"/>
    <cc:permits rdf:resource="http://creativecommons.org/ns#DerivativeWorks"/>
   </cc:License>
  </rdf:RDF>
 </metadata>
</svg>
